<svg width="478" height="122" viewBox="0 0 478 122" fill="none" xmlns="http://www.w3.org/2000/svg">
<path d="M283.078 60.875C283.078 36.7031 263.172 16.7969 239 16.7969C214.65 16.7969 194.922 36.7031 194.922 60.875C194.922 85.2246 214.65 104.953 239 104.953C263.172 104.953 283.078 85.2246 283.078 60.875ZM239 69.7617C243.443 69.7617 247.176 73.4941 247.176 77.9375C247.176 82.5586 243.443 86.1133 239 86.1133C234.379 86.1133 230.824 82.5586 230.824 77.9375C230.824 73.4941 234.379 69.7617 239 69.7617ZM231.18 40.4355C231.002 39.1914 232.068 38.125 233.312 38.125H244.51C245.754 38.125 246.82 39.1914 246.643 40.4355L245.398 64.6074C245.221 65.8516 244.332 66.5625 243.266 66.5625H234.557C233.49 66.5625 232.602 65.8516 232.424 64.6074L231.18 40.4355Z" fill="#FF3A30"/>
</svg>
