<svg width="128" height="36" viewBox="0 0 128 36" fill="none" xmlns="http://www.w3.org/2000/svg">
<path fill-rule="evenodd" clip-rule="evenodd" d="M28.6868 8.29097L28.8375 9.18199C28.9563 10.0109 29.0113 10.8473 29.0021 11.6843C29.0011 13.5338 28.773 15.3765 28.3226 17.1729C27.7135 19.6133 26.6525 21.924 25.1922 23.9907C23.5048 26.3641 21.0649 28.6986 17.5084 30.5743L17.0733 30.8036L16.6383 30.5743C13.0818 28.6986 10.6429 26.3641 8.95448 23.9907C7.49422 21.924 6.43326 19.6133 5.82409 17.1729C5.37377 15.3769 5.14561 13.5345 5.14453 11.6852C5.13533 10.8483 5.19037 10.0119 5.30918 9.18297L5.45986 8.29195C5.47273 8.21928 5.47076 8.14484 5.45407 8.07293C5.43738 8.00101 5.40631 7.93303 5.36264 7.87291C5.31897 7.81279 5.26356 7.76172 5.19961 7.72264C5.13567 7.68356 5.06445 7.65724 4.99005 7.64519C4.91566 7.63315 4.83956 7.63563 4.76615 7.65248C4.69274 7.66934 4.62346 7.70023 4.56232 7.74339C4.50117 7.78654 4.44936 7.8411 4.40987 7.90393C4.37039 7.96676 4.344 8.0366 4.33224 8.10945L4.18156 9.00047C4.05196 9.88963 3.99158 10.7871 4.00094 11.6852C4.00166 13.6255 4.24088 15.5587 4.71344 17.4432C5.35671 20.0166 6.47653 22.4531 8.01746 24.6319C9.7987 27.139 12.3822 29.6042 16.1004 31.5609L16.8069 31.9328C16.8901 31.9768 16.9832 31.9998 17.0778 31.9998C17.1724 31.9998 17.2655 31.9768 17.3488 31.9328L18.0543 31.5609C21.7684 29.6032 24.353 27.139 26.1372 24.6319C27.6773 22.4532 28.7965 20.0171 29.4392 17.4442C29.9118 15.5597 30.151 13.6265 30.1517 11.6862C30.1611 10.7881 30.1007 9.89061 29.9711 9.00144L29.8204 8.11042C29.8087 8.03758 29.7823 7.96773 29.7428 7.90491C29.7033 7.84208 29.6515 7.78752 29.5903 7.74436C29.5292 7.70121 29.4599 7.67031 29.3865 7.65346C29.3131 7.63661 29.237 7.63413 29.1626 7.64617C29.0882 7.65821 29.017 7.68453 28.953 7.72361C28.8891 7.7627 28.8337 7.81377 28.79 7.87389C28.7463 7.93401 28.7153 8.00198 28.6986 8.0739C28.6819 8.14582 28.6799 8.22026 28.6928 8.29292L28.6868 8.29097Z" fill="white"/>
<path fill-rule="evenodd" clip-rule="evenodd" d="M8.58196 7.68608L17.074 5.14868L25.7557 7.74074C25.901 7.78323 26.0577 7.76769 26.1913 7.69751C26.325 7.62733 26.4248 7.50822 26.4688 7.36626C26.5129 7.2243 26.4977 7.07104 26.4265 6.94003C26.3553 6.80902 26.2339 6.71093 26.089 6.66722L17.2407 4.02539C17.1321 3.99284 17.016 3.99284 16.9074 4.02539L8.24767 6.61061C8.1753 6.63177 8.10792 6.6667 8.04939 6.7134C7.99087 6.76009 7.94234 6.81763 7.90661 6.88271C7.87088 6.94779 7.84865 7.01913 7.84119 7.09264C7.83372 7.16614 7.84118 7.24037 7.86312 7.31105C7.88507 7.38173 7.92107 7.44748 7.96906 7.50452C8.01706 7.56156 8.0761 7.60876 8.1428 7.64343C8.20949 7.67809 8.28254 7.69953 8.35773 7.70652C8.43292 7.7135 8.50878 7.7059 8.58096 7.68413L8.58196 7.68608Z" fill="white"/>
<path fill-rule="evenodd" clip-rule="evenodd" d="M4.38818 8.45598L16.5625 31.6947C16.6099 31.7855 16.6819 31.8619 16.7706 31.9155C16.8594 31.9692 16.9614 31.998 17.0657 31.9989C17.17 31.9998 17.2725 31.9728 17.3622 31.9207C17.4519 31.8686 17.5252 31.7935 17.5743 31.7035L24.9987 18.1235L25.0096 18.102L29.7616 8.44036C29.826 8.30703 29.834 8.15422 29.7838 8.01516C29.7337 7.87609 29.6294 7.76201 29.4937 7.69771C29.358 7.63342 29.2019 7.6241 29.0592 7.67179C28.9165 7.71949 28.7988 7.82033 28.7318 7.9524L23.9878 17.6063L17.0884 30.2347L5.40504 7.94459C5.37137 7.87841 5.3246 7.81942 5.26745 7.77104C5.2103 7.72266 5.1439 7.68585 5.0721 7.66275C5.0003 7.63965 4.92452 7.63071 4.84917 7.63646C4.77381 7.6422 4.70036 7.66251 4.63309 7.69621C4.56582 7.72992 4.50605 7.77634 4.45726 7.8328C4.40846 7.88925 4.37161 7.95462 4.34883 8.0251C4.32605 8.09559 4.3178 8.1698 4.32455 8.24342C4.33131 8.31705 4.35294 8.38863 4.38818 8.45403V8.45598Z" fill="white"/>
<path fill-rule="evenodd" clip-rule="evenodd" d="M10.2168 18.8066H23.7552C23.9067 18.8066 24.052 18.7478 24.1592 18.643C24.2663 18.5382 24.3265 18.3961 24.3265 18.2479C24.3265 18.0997 24.2663 17.9576 24.1592 17.8528C24.052 17.7481 23.9067 17.6892 23.7552 17.6892H10.2168C10.0653 17.6892 9.91997 17.7481 9.81284 17.8528C9.7057 17.9576 9.64551 18.0997 9.64551 18.2479C9.64551 18.3961 9.7057 18.5382 9.81284 18.643C9.91997 18.7478 10.0653 18.8066 10.2168 18.8066ZM47.9791 13.9856H39.1717C39.0195 13.9863 38.8737 14.0458 38.7661 14.1511C38.6585 14.2563 38.5977 14.3989 38.5969 14.5477V21.4612C38.5979 21.6099 38.6588 21.7523 38.7664 21.8575C38.8739 21.9627 39.0195 22.0223 39.1717 22.0233H47.9791V23.1944H39.1717C38.9393 23.1954 38.709 23.1514 38.4941 23.0649C38.2792 22.9785 38.084 22.8512 37.9197 22.6905C37.7553 22.5298 37.6252 22.3388 37.5368 22.1287C37.4483 21.9185 37.4033 21.6933 37.4044 21.466V14.5526C37.4033 14.3253 37.4483 14.1001 37.5368 13.8899C37.6252 13.6798 37.7553 13.4888 37.9197 13.3281C38.084 13.1674 38.2792 13.0402 38.4941 12.9537C38.709 12.8672 38.9393 12.8232 39.1717 12.8242H47.9791V13.9856ZM64.5171 12.8184V13.9895H56.035V17.412H62.8526V18.5929H56.034V22.0213H64.5161V23.1925H54.8366V12.8184H64.5171Z" fill="white"/>
<path d="M81.9837 14.5624V17.6014C81.9846 17.8286 81.9395 18.0538 81.851 18.2639C81.7625 18.474 81.6324 18.6649 81.4681 18.8255C81.3038 18.9862 81.1086 19.1135 80.8938 19.2C80.679 19.2866 80.4487 19.3307 80.2164 19.3298H78.5968L81.9248 23.1895H80.3491L77.0351 19.3298H73.1433C72.9509 19.3202 72.759 19.301 72.5686 19.2722V23.1895H71.3711V12.834H80.2074C80.4398 12.8331 80.67 12.8772 80.8848 12.9637C81.0997 13.0503 81.2948 13.1775 81.4591 13.3382C81.6234 13.4989 81.7536 13.6898 81.842 13.8999C81.9305 14.11 81.9756 14.3351 81.9747 14.5624H81.9837ZM73.1473 18.1489H80.2164C80.2902 18.1498 80.3634 18.1363 80.4317 18.1091C80.5001 18.0819 80.5622 18.0416 80.6143 17.9906C80.6665 17.9396 80.7077 17.8788 80.7355 17.812C80.7633 17.7452 80.7772 17.6735 80.7762 17.6014V14.5624C80.7774 14.4891 80.7637 14.4164 80.7359 14.3484C80.7082 14.2804 80.6669 14.2185 80.6146 14.1661C80.5637 14.1126 80.5019 14.0701 80.4331 14.0415C80.3643 14.0129 80.2901 13.9988 80.2154 14.0002H73.1463C72.9941 14.001 72.8484 14.0605 72.7408 14.1657C72.6332 14.271 72.5723 14.4135 72.5716 14.5624V17.6014C72.57 17.6745 72.5843 17.7471 72.6136 17.8144C72.6428 17.8817 72.6863 17.9421 72.7412 17.9918C72.7948 18.0431 72.8583 18.0834 72.9281 18.1104C72.9978 18.1373 73.0724 18.1504 73.1473 18.1489Z" fill="white"/>
<path fill-rule="evenodd" clip-rule="evenodd" d="M88.3164 12.8184H98.916V13.9895H94.2259V23.1934H93.0285V13.9895H88.3164V12.8184ZM105.34 23.1885V12.8184H106.538V23.1885H105.34ZM122.453 12.8184H123.985L119.552 18.0035L124 23.1885H122.453L118.507 18.5939H115.09V23.1885H113.884V12.8184H115.092V17.412H118.509L122.453 12.8184Z" fill="white"/>
</svg>
