<svg width="41" height="40" viewBox="0 0 41 40" fill="none" xmlns="http://www.w3.org/2000/svg">
<g clip-path="url(#clip0)">
<path d="M0.00195312 20C0.00195312 12.5231 0.00195312 8.78461 1.60965 6C2.66287 4.17577 4.17772 2.66091 6.00195 1.60769C8.78656 0 12.525 0 20.002 0C27.4789 0 31.2173 0 34.002 1.60769C35.8262 2.66091 37.341 4.17577 38.3943 6C40.002 8.78461 40.002 12.5231 40.002 20C40.002 27.4769 40.002 31.2154 38.3943 34C37.341 35.8242 35.8262 37.3391 34.002 38.3923C31.2173 40 27.4789 40 20.002 40C12.525 40 8.78656 40 6.00195 38.3923C4.17772 37.3391 2.66287 35.8242 1.60965 34C0.00195312 31.2154 0.00195312 27.4769 0.00195312 20Z" fill="#630BF1"/>
<path fill-rule="evenodd" clip-rule="evenodd" d="M15.5906 14.4111C15.2651 14.0856 14.7375 14.0856 14.412 14.4111C14.0866 14.7365 14.0866 15.2641 14.412 15.5896L18.8228 20.0003L14.412 24.4111C14.0866 24.7365 14.0866 25.2641 14.412 25.5896C14.7375 25.915 15.2651 25.915 15.5906 25.5896L20.0013 21.1788L24.412 25.5896C24.7375 25.915 25.2651 25.915 25.5906 25.5896C25.916 25.2641 25.916 24.7365 25.5906 24.4111L21.1798 20.0003L25.5906 15.5896C25.916 15.2641 25.916 14.7365 25.5906 14.4111C25.2651 14.0856 24.7375 14.0856 24.412 14.4111L20.0013 18.8218L15.5906 14.4111Z" fill="#B8C5EC"/>
</g>
<defs>
<clipPath id="clip0">
<path d="M0.00195312 20C0.00195312 12.5231 0.00195312 8.78461 1.60965 6C2.66287 4.17577 4.17772 2.66091 6.00195 1.60769C8.78656 0 12.525 0 20.002 0C27.4789 0 31.2173 0 34.002 1.60769C35.8262 2.66091 37.341 4.17577 38.3943 6C40.002 8.78461 40.002 12.5231 40.002 20C40.002 27.4769 40.002 31.2154 38.3943 34C37.341 35.8242 35.8262 37.3391 34.002 38.3923C31.2173 40 27.4789 40 20.002 40C12.525 40 8.78656 40 6.00195 38.3923C4.17772 37.3391 2.66287 35.8242 1.60965 34C0.00195312 31.2154 0.00195312 27.4769 0.00195312 20Z" fill="white"/>
</clipPath>
</defs>
</svg>
