<svg width="24" height="20" viewBox="0 0 24 20" fill="none" xmlns="http://www.w3.org/2000/svg">
<path fill-rule="evenodd" style="fill: #F10088" clip-rule="evenodd" d="M14.0932 2.31151C12.868 1.94015 11.5742 1.90021 10.331 2.19497C9.08754 2.4898 7.93088 3.11095 6.97051 4.00542C6.00986 4.90015 5.27699 6.03936 4.84481 7.31915C4.66811 7.84241 4.10069 8.12335 3.57743 7.94665C3.05418 7.76995 2.77324 7.20252 2.94994 6.67927C3.48599 5.09188 4.39869 3.66765 5.6074 2.54188C6.8164 1.41585 8.28219 0.625297 9.86958 0.248927C11.4572 -0.127499 13.1104 -0.076235 14.6733 0.397497C16.2309 0.869604 17.6443 1.74467 18.7848 2.93646L21.5015 5.61141V2.5C21.5015 1.94772 21.9492 1.5 22.5015 1.5C23.0537 1.5 23.5015 1.94772 23.5015 2.5V7.99831C23.5015 7.99912 23.5015 7.99993 23.5015 8.00074V8.5C23.5015 9.05229 23.0537 9.5 22.5015 9.5H16.5015C15.9492 9.5 15.5015 9.05229 15.5015 8.5C15.5015 7.94772 15.9492 7.5 16.5015 7.5H20.5689L17.3708 4.35088C17.3633 4.34354 17.356 4.33609 17.3488 4.32853C16.4394 3.37514 15.3186 2.68295 14.0932 2.31151ZM0.501465 11.5C0.501465 10.9477 0.94918 10.5 1.50147 10.5H7.50146C8.05375 10.5 8.50146 10.9477 8.50146 11.5C8.50146 12.0523 8.05375 12.5 7.50146 12.5H3.43399L6.63218 15.6491C6.63963 15.6565 6.64696 15.6639 6.65417 15.6715C7.56353 16.6249 8.68431 17.3171 9.90977 17.6885C11.1349 18.0599 12.4287 18.0998 13.6719 17.805C14.9154 17.5102 16.0721 16.889 17.0324 15.9946C17.9931 15.0998 18.7259 13.9606 19.1581 12.6808C19.3348 12.1576 19.9022 11.8767 20.4255 12.0534C20.9488 12.2301 21.2297 12.7975 21.053 13.3207C20.5169 14.9081 19.6042 16.3323 18.3955 17.4581C17.1865 18.5842 15.7207 19.3747 14.1333 19.7511C12.5457 20.1275 10.8926 20.0762 9.32962 19.6025C7.77203 19.1304 6.35856 18.2553 5.21804 17.0635L2.50147 14.3886V17.5C2.50147 18.0523 2.05375 18.5 1.50147 18.5C0.94918 18.5 0.501465 18.0523 0.501465 17.5V12.0011C0.501465 12.0007 0.501465 12.0003 0.501465 11.9999V11.5Z" fill="#630BF1"/>
</svg>
