<svg width="40" height="40" viewBox="0 0 40 40" fill="none" xmlns="http://www.w3.org/2000/svg">
<path fill-rule="evenodd" clip-rule="evenodd" d="M11.6668 11.667C11.3424 11.667 11.0475 11.8553 10.9109 12.1496C10.7744 12.4439 10.821 12.7907 11.0305 13.0384L17.5002 20.6888V25.8337C17.5002 26.1493 17.6785 26.4379 17.9608 26.579L21.2942 28.2457C21.5525 28.3748 21.8593 28.361 22.1049 28.2092C22.3506 28.0574 22.5002 27.7891 22.5002 27.5003V20.6888L28.9698 13.0384C29.1793 12.7907 29.226 12.4439 29.0894 12.1496C28.9529 11.8553 28.6579 11.667 28.3335 11.667H11.6668ZM18.9698 19.8456L13.4629 13.3337H26.5374L21.0305 19.8456C20.9033 19.996 20.8335 20.1866 20.8335 20.3837V26.152L19.1668 25.3186V20.3837C19.1668 20.1866 19.097 19.996 18.9698 19.8456Z" fill="white"/>
<path d="M6 38.3923L6.5 37.5263L6 38.3923ZM38.3923 34L37.5263 33.5L38.3923 34ZM34 38.3923L33.5 37.5263L34 38.3923ZM34 1.60769L33.5 2.47372L34 1.60769ZM38.3923 6L37.5263 6.5L38.3923 6ZM20 39C16.2431 39 13.4923 38.999 11.3306 38.8031C9.1827 38.6084 7.71474 38.2276 6.5 37.5263L5.5 39.2583C7.06987 40.1647 8.86345 40.5877 11.1501 40.795C13.423 41.001 16.2799 41 20 41V39ZM-1 20C-1 23.7201 -1.00096 26.577 -0.794956 28.8499C-0.587708 31.1365 -0.164696 32.9301 0.74167 34.5L2.47372 33.5C1.77239 32.2853 1.39156 30.8173 1.19688 28.6694C1.00096 26.5077 1 23.7569 1 20H-1ZM6.5 37.5263C4.82779 36.5608 3.43917 35.1722 2.47372 33.5L0.74167 34.5C1.88266 36.4762 3.52375 38.1173 5.5 39.2583L6.5 37.5263ZM39 20C39 23.7569 38.999 26.5077 38.8031 28.6694C38.6084 30.8173 38.2276 32.2853 37.5263 33.5L39.2583 34.5C40.1647 32.9301 40.5877 31.1365 40.795 28.8499C41.001 26.577 41 23.7201 41 20H39ZM20 41C23.7201 41 26.577 41.001 28.8499 40.795C31.1365 40.5877 32.9301 40.1647 34.5 39.2583L33.5 37.5263C32.2853 38.2276 30.8173 38.6084 28.6694 38.8031C26.5077 38.999 23.7569 39 20 39V41ZM37.5263 33.5C36.5608 35.1722 35.1722 36.5608 33.5 37.5263L34.5 39.2583C36.4762 38.1173 38.1173 36.4762 39.2583 34.5L37.5263 33.5ZM20 1C23.7569 1 26.5077 1.00096 28.6694 1.19688C30.8173 1.39156 32.2853 1.77239 33.5 2.47372L34.5 0.74167C32.9301 -0.164696 31.1365 -0.587708 28.8499 -0.794956C26.577 -1.00096 23.7201 -1 20 -1V1ZM41 20C41 16.2799 41.001 13.423 40.795 11.1501C40.5877 8.86345 40.1647 7.06987 39.2583 5.5L37.5263 6.5C38.2276 7.71474 38.6084 9.1827 38.8031 11.3306C38.999 13.4923 39 16.2431 39 20H41ZM33.5 2.47372C35.1722 3.43917 36.5608 4.82779 37.5263 6.5L39.2583 5.5C38.1173 3.52375 36.4762 1.88266 34.5 0.74167L33.5 2.47372ZM20 -1C16.2799 -1 13.423 -1.00096 11.1501 -0.794956C8.86345 -0.587708 7.06987 -0.164696 5.5 0.74167L6.5 2.47372C7.71474 1.77239 9.1827 1.39156 11.3306 1.19688C13.4923 1.00096 16.2431 1 20 1V-1ZM1 20C1 16.2431 1.00096 13.4923 1.19688 11.3306C1.39156 9.1827 1.77239 7.71474 2.47372 6.5L0.74167 5.5C-0.164696 7.06987 -0.587708 8.86345 -0.794956 11.1501C-1.00096 13.423 -1 16.2799 -1 20H1ZM5.5 0.74167C3.52375 1.88266 1.88266 3.52375 0.74167 5.5L2.47372 6.5C3.43917 4.82779 4.82779 3.43917 6.5 2.47372L5.5 0.74167Z" fill="#630BF1"/>
</svg>
