<svg width="19" height="14" viewBox="0 0 19 14" fill="none" xmlns="http://www.w3.org/2000/svg">
<path d="M9.00146 0.5C4.00928 0.5 0.00146484 2.78516 0.00146484 5.5625L0.00146484 9.5C0.00146484 11.9961 4.00928 14 9.00146 14C13.9585 14 18.0015 11.9961 18.0015 9.5L18.0015 5.5625C18.0015 2.78516 13.9585 0.5 9.00146 0.5ZM3.09521 11.0469C2.18115 10.5547 1.68896 9.99219 1.68896 9.5L1.68896 8.51562C2.04053 8.79688 2.67334 9.18359 3.09521 9.39453L3.09521 11.0469ZM6.47021 12.1367C5.80225 12.0312 4.81787 11.7852 4.22021 11.5391V9.85156C4.81787 10.0625 5.80225 10.3438 6.47021 10.4492V12.1367ZM10.4077 12.2773C9.95068 12.3125 9.4585 12.3477 9.00146 12.3477C8.50928 12.3477 8.01709 12.3125 7.59521 12.2773V10.5898C8.05225 10.625 8.50928 10.625 9.00146 10.625C9.4585 10.625 9.91553 10.625 10.4077 10.5898L10.4077 12.2773ZM13.7827 11.5391C13.1499 11.7852 12.1655 12.0313 11.5327 12.1367L11.5327 10.4492C12.1655 10.3438 13.1499 10.0625 13.7827 9.85156V11.5391ZM16.314 9.5C16.314 9.99219 15.7866 10.5547 14.9077 11.0469V9.39453C15.2944 9.18359 15.9272 8.79688 16.314 8.51563V9.5ZM9.00146 8.9375C4.81787 8.9375 1.68896 7.17969 1.68896 5.5625C1.68896 3.98047 4.81787 2.1875 9.00146 2.1875C13.1851 2.1875 16.314 3.98047 16.314 5.5625C16.314 7.17969 13.1851 8.9375 9.00146 8.9375Z" fill="#630BF1"/>
</svg>
