<svg width="15" height="18" viewBox="0 0 15 18" fill="none" xmlns="http://www.w3.org/2000/svg">
<path fill-rule="evenodd" clip-rule="evenodd" d="M7.00146 0C7.55375 0 8.00146 0.447715 8.00146 1V17C8.00146 17.5523 7.55375 18 7.00146 18C6.44918 18 6.00146 17.5523 6.00146 17V1C6.00146 0.447715 6.44918 0 7.00146 0ZM13.0015 6C13.5538 6 14.0015 6.44772 14.0015 7V17C14.0015 17.5523 13.5538 18 13.0015 18C12.4492 18 12.0015 17.5523 12.0015 17V7C12.0015 6.44772 12.4492 6 13.0015 6ZM1.00146 10C1.55375 10 2.00146 10.4477 2.00146 11V17C2.00146 17.5523 1.55375 18 1.00146 18C0.44918 18 0.00146484 17.5523 0.00146484 17V11C0.00146484 10.4477 0.44918 10 1.00146 10Z" fill="#630BF1"/>
</svg>
