<svg width="12" height="12" viewBox="0 0 12 12" fill="none" xmlns="http://www.w3.org/2000/svg">
<path fill-rule="evenodd" clip-rule="evenodd" d="M5.78685 1.21429C6.12856 1.556 6.12856 2.11002 5.78685 2.45173L2.2389 5.99967L5.78685 9.54762C6.12856 9.88933 6.12856 10.4434 5.78685 10.7851C5.44514 11.1268 4.89112 11.1268 4.54941 10.7851L0.382746 6.61839C0.0410377 6.27668 0.0410377 5.72266 0.382746 5.38096L4.54941 1.21429C4.89112 0.872581 5.44514 0.872581 5.78685 1.21429ZM11.6202 1.21429C11.9619 1.556 11.9619 2.11002 11.6202 2.45173L8.07224 5.99967L11.6202 9.54762C11.9619 9.88933 11.9619 10.4434 11.6202 10.7851C11.2785 11.1268 10.7245 11.1268 10.3827 10.7851L6.21608 6.61839C5.87437 6.27668 5.87437 5.72266 6.21608 5.38096L10.3827 1.21429C10.7245 0.872581 11.2785 0.872581 11.6202 1.21429Z" fill="#B8C5EC" fill-opacity="0.35"/>
</svg>
