<svg width="16" height="19" viewBox="0 0 16 19" fill="none" xmlns="http://www.w3.org/2000/svg">
<path d="M12.0952 10.375L3.65771 10.375C3.48193 10.375 3.37646 10.5156 3.37646 10.6562V11.7812C3.37646 11.957 3.48193 12.0625 3.65771 12.0625L12.0952 12.0625C12.2358 12.0625 12.3765 11.957 12.3765 11.7813V10.6563C12.3765 10.5156 12.2358 10.375 12.0952 10.375ZM14.064 0.460938L12.5522 1.55078L11.1812 0.601563C10.5835 0.179688 9.81006 0.179688 9.2124 0.601563L7.87646 1.55078L6.50537 0.601563C6.25928 0.425781 5.80225 0.285156 5.521 0.285156C5.20459 0.285156 4.78271 0.425781 4.53662 0.601563L3.16553 1.55078L1.65381 0.460938C0.950684 -0.03125 0.00146484 0.460938 0.00146484 1.30469L0.00146484 17.2305C0.00146484 18.0391 0.950684 18.5664 1.65381 18.0742L3.16553 16.9492L4.53662 17.9336C5.13428 18.3555 5.90771 18.3555 6.50537 17.9336L7.87646 16.9492L9.2124 17.9336C9.81006 18.3555 10.5835 18.3555 11.1812 17.9336L12.5522 16.9492L14.064 18.0742C14.7671 18.5664 15.7515 18.0742 15.7515 17.2305L15.7515 1.30469C15.7515 0.460938 14.7671 -0.03125 14.064 0.460938ZM14.064 15.9648L12.5522 14.875L10.1968 16.5625L7.84131 14.875L5.521 16.5625L3.16553 14.875L1.68896 15.9648L1.68896 2.57031L3.16553 3.66016L5.521 1.97266L7.87646 3.66016L10.1968 1.97266L12.5522 3.66016L14.064 2.57031L14.064 15.9648ZM12.0952 6.4375L3.65771 6.4375C3.48193 6.4375 3.37646 6.57812 3.37646 6.71875V7.84375C3.37646 8.01953 3.48193 8.125 3.65771 8.125L12.0952 8.125C12.2358 8.125 12.3765 8.01953 12.3765 7.84375V6.71875C12.3765 6.57813 12.2358 6.4375 12.0952 6.4375Z" fill="#630BF1"/>
</svg>
