<svg width="18" height="12" viewBox="0 0 18 12" fill="none" xmlns="http://www.w3.org/2000/svg">
<path fill-rule="evenodd" clip-rule="evenodd" d="M1.5013 0.166992C1.04106 0.166992 0.667969 0.540088 0.667969 1.00033C0.667969 1.46056 1.04106 1.83366 1.5013 1.83366H16.5013C16.9615 1.83366 17.3346 1.46056 17.3346 1.00033C17.3346 0.540088 16.9615 0.166992 16.5013 0.166992H1.5013ZM1.5013 5.16699C1.04106 5.16699 0.667969 5.54009 0.667969 6.00033C0.667969 6.46056 1.04106 6.83366 1.5013 6.83366H16.5013C16.9615 6.83366 17.3346 6.46056 17.3346 6.00033C17.3346 5.54009 16.9615 5.16699 16.5013 5.16699H1.5013ZM1.5013 10.167C1.04106 10.167 0.667969 10.5401 0.667969 11.0003C0.667969 11.4606 1.04106 11.8337 1.5013 11.8337H16.5013C16.9615 11.8337 17.3346 11.4606 17.3346 11.0003C17.3346 10.5401 16.9615 10.167 16.5013 10.167H1.5013Z" fill="#B8C5EC"/>
</svg>
