<svg width="22" height="22" viewBox="0 0 22 22" fill="none" xmlns="http://www.w3.org/2000/svg">
<path fill-rule="evenodd" clip-rule="evenodd" d="M18 2.17163C17.7599 2.17163 17.5222 2.21892 17.3003 2.31081C17.0785 2.4027 16.8769 2.53738 16.7071 2.70716L3.39491 16.0194L2.42524 19.5748L5.9807 18.6052L19.2929 5.29295C19.4627 5.12317 19.5974 4.9216 19.6893 4.69977C19.7812 4.47794 19.8284 4.24017 19.8284 4.00006C19.8284 3.75994 19.7812 3.52218 19.6893 3.30035C19.5974 3.07852 19.4627 2.87695 19.2929 2.70716C19.1231 2.53738 18.9216 2.4027 18.6997 2.31081C18.4779 2.21892 18.2401 2.17163 18 2.17163ZM16.5349 0.463052C16.9994 0.270656 17.4973 0.171631 18 0.171631C18.5028 0.171631 19.0006 0.270656 19.4651 0.463052C19.9296 0.655449 20.3516 0.937448 20.7071 1.29295C21.0626 1.64845 21.3446 2.07049 21.537 2.53498C21.7294 2.99947 21.8284 3.49731 21.8284 4.00006C21.8284 4.50281 21.7294 5.00064 21.537 5.46513C21.3446 5.92962 21.0626 6.35166 20.7071 6.70717L7.20713 20.2072C7.08407 20.3302 6.93104 20.419 6.76314 20.4648L1.26314 21.9648C0.916928 22.0592 0.546667 21.9609 0.292916 21.7072C0.0391662 21.4534 -0.0591621 21.0832 0.0352593 20.7369L1.53526 15.2369C1.58105 15.069 1.66986 14.916 1.79292 14.793L15.2929 1.29295C15.6484 0.937448 16.0705 0.655449 16.5349 0.463052Z" fill="#F10088"/>
</svg>
