<svg width="17" height="16" viewBox="0 0 17 16" fill="none" xmlns="http://www.w3.org/2000/svg">
<path fill-rule="evenodd" clip-rule="evenodd" d="M9.00146 1C9.00146 0.447715 8.55375 0 8.00146 0C7.44918 0 7.00146 0.447715 7.00146 1V7H1.00146C0.44918 7 0.00146484 7.44771 0.00146484 8C0.00146484 8.55228 0.44918 9 1.00146 9H7.00147V15C7.00147 15.5523 7.44918 16 8.00146 16C8.55375 16 9.00146 15.5523 9.00146 15V9H15.0015C15.5538 9 16.0015 8.55228 16.0015 8C16.0015 7.44771 15.5538 7 15.0015 7H9.00146V1Z" fill="white"/>
</svg>
