<svg width="21" height="23" viewBox="0 0 21 23" fill="none" xmlns="http://www.w3.org/2000/svg">
<path style="fill: #F10088" fill-rule="evenodd" clip-rule="evenodd" d="M8.50355 0.402673C8.9591 0.140149 9.47566 0.00195312 10.0015 0.00195312C10.5273 0.00195312 11.0438 0.140149 11.4994 0.402673C11.5001 0.403074 11.5008 0.403475 11.5015 0.403877L18.5015 4.40387C18.8714 4.61748 19.1905 4.90705 19.4384 5.25226C19.4987 5.31263 19.5523 5.38178 19.5971 5.45918C19.6356 5.52585 19.6656 5.59512 19.6874 5.66571C19.8931 6.07918 20.001 6.53538 20.0015 6.99888V15.0009C20.0009 15.527 19.8621 16.0437 19.5988 16.4992C19.3355 16.9547 18.9571 17.3329 18.5015 17.5959L18.4976 17.5981L11.5015 21.5959C11.5009 21.5963 11.5003 21.5966 11.4997 21.597C11.1825 21.7798 10.8356 21.9024 10.4767 21.96C10.3354 22.0365 10.1735 22.0799 10.0015 22.0799C9.82944 22.0799 9.66757 22.0365 9.52621 21.96C9.16729 21.9024 8.82048 21.7798 8.50326 21.597C8.50266 21.5966 8.50206 21.5963 8.50146 21.5959L1.50533 17.5981L1.50146 17.5959C1.04586 17.3329 0.667435 16.9547 0.404157 16.4992C0.140879 16.0437 0.00200444 15.527 0.00146484 15.0009V6.99888C0.00194025 6.53539 0.109789 6.07918 0.315485 5.66572C0.33728 5.59512 0.367291 5.52585 0.405857 5.45918C0.45063 5.38178 0.504189 5.31263 0.564544 5.25226C0.8124 4.90705 1.13148 4.61749 1.50146 4.40388L1.50532 4.40165L8.50355 0.402673ZM2.00146 7.53744V14.9993C2.00172 15.1745 2.04801 15.3466 2.13569 15.4983C2.22315 15.6496 2.34873 15.7753 2.4999 15.863C2.50042 15.8633 2.50094 15.8636 2.50146 15.8639L9.00146 19.5782V11.5867L2.00146 7.53744ZM11.0015 11.5867V19.5782L17.5015 15.8639C17.502 15.8636 17.5025 15.8633 17.503 15.863C17.6542 15.7753 17.7798 15.6496 17.8672 15.4983C17.955 15.3465 18.0013 15.1742 18.0015 14.9989V7.53744L11.0015 11.5867ZM16.9625 5.82794L10.5015 2.13594C10.3494 2.04817 10.177 2.00195 10.0015 2.00195C9.82593 2.00195 9.65348 2.04816 9.50146 2.13593L9.49761 2.13815L3.04046 5.82794L10.0015 9.85464L16.9625 5.82794Z" fill="#630BF1"/>
</svg>
