<svg width="20" height="20" viewBox="0 0 20 20" fill="none" xmlns="http://www.w3.org/2000/svg">
<path d="M20 10C20 15.5228 15.5228 20 10 20C4.47715 20 0 15.5228 0 10C0 4.47715 4.47715 0 10 0C15.5228 0 20 4.47715 20 10ZM2.2 10C2.2 14.3078 5.69218 17.8 10 17.8C14.3078 17.8 17.8 14.3078 17.8 10C17.8 5.69218 14.3078 2.2 10 2.2C5.69218 2.2 2.2 5.69218 2.2 10Z" fill="#B8C5EC" fill-opacity="0.2"/>
<path d="M10 1.1C10 0.492487 10.4939 -0.00625334 11.0978 0.0604393C12.0342 0.163859 12.9531 0.399286 13.8268 0.761205C15.0401 1.26375 16.1425 2.00035 17.0711 2.92893C17.9997 3.85752 18.7362 4.95991 19.2388 6.17317C19.7413 7.38642 20 8.68678 20 10C20 11.3132 19.7413 12.6136 19.2388 13.8268C18.7362 15.0401 17.9997 16.1425 17.0711 17.0711C16.1425 17.9997 15.0401 18.7362 13.8268 19.2388C12.9531 19.6007 12.0342 19.8361 11.0978 19.9396C10.4939 20.0063 10 19.5075 10 18.9C10 18.2925 10.4949 17.808 11.0964 17.7226C11.7436 17.6307 12.3782 17.4576 12.9849 17.2063C13.9313 16.8143 14.7911 16.2397 15.5154 15.5154C16.2397 14.7911 16.8143 13.9313 17.2063 12.9849C17.5982 12.0386 17.8 11.0243 17.8 10C17.8 8.97569 17.5982 7.96141 17.2063 7.01507C16.8143 6.06873 16.2397 5.20886 15.5154 4.48457C14.7911 3.76027 13.9313 3.18573 12.9849 2.79374C12.3782 2.54244 11.7436 2.36933 11.0964 2.27744C10.4949 2.19204 10 1.70751 10 1.1Z" fill="#F10088"/>
</svg>
