<svg width="24" height="20" viewBox="0 0 24 20" fill="none" xmlns="http://www.w3.org/2000/svg">
<path fill-rule="evenodd" clip-rule="evenodd" d="M10.3295 2.19497C11.5727 1.90021 12.8665 1.94015 14.0917 2.31151C15.3172 2.68295 16.4379 3.37514 17.3473 4.32853C17.3545 4.33609 17.3618 4.34354 17.3693 4.35088L20.5675 7.5H16.5C15.9477 7.5 15.5 7.94772 15.5 8.5C15.5 9.05229 15.9477 9.5 16.5 9.5H22.5C23.0523 9.5 23.5 9.05229 23.5 8.5V8.00074V7.99831V2.5C23.5 1.94772 23.0523 1.5 22.5 1.5C21.9477 1.5 21.5 1.94772 21.5 2.5V5.61141L18.7834 2.93646C17.6429 1.74467 16.2294 0.869604 14.6718 0.397497C13.1089 -0.076235 11.4557 -0.127499 9.86812 0.248927C8.28072 0.625297 6.81493 1.41585 5.60594 2.54188C4.39723 3.66765 3.48452 5.09188 2.94847 6.67927C2.77177 7.20252 3.05271 7.76995 3.57597 7.94665C4.09922 8.12335 4.66665 7.84241 4.84335 7.31915C5.27552 6.03936 6.00839 4.90015 6.96904 4.00542C7.92941 3.11095 9.08608 2.4898 10.3295 2.19497ZM1.5 10.5C0.947715 10.5 0.5 10.9477 0.5 11.5V11.9999V12.0011V17.5C0.5 18.0523 0.947715 18.5 1.5 18.5C2.05228 18.5 2.5 18.0523 2.5 17.5V14.3886L5.21658 17.0635C6.35709 18.2553 7.77057 19.1304 9.32816 19.6025C10.8911 20.0762 12.5443 20.1275 14.1319 19.7511C15.7193 19.3747 17.1851 18.5842 18.3941 17.4581C19.6028 16.3323 20.5155 14.9081 21.0515 13.3207C21.2282 12.7975 20.9473 12.2301 20.424 12.0534C19.9008 11.8767 19.3334 12.1576 19.1567 12.6808C18.7245 13.9606 17.9916 15.0998 17.031 15.9946C16.0706 16.889 14.9139 17.5102 13.6705 17.805C12.4273 18.0998 11.1335 18.0599 9.9083 17.6885C8.68285 17.3171 7.56206 16.6249 6.65271 15.6715C6.64549 15.6639 6.63816 15.6565 6.63071 15.6491L3.43253 12.5H7.5C8.05228 12.5 8.5 12.0523 8.5 11.5C8.5 10.9477 8.05228 10.5 7.5 10.5H1.5Z" fill="white"/>
</svg>
