<svg width="13" height="17" viewBox="0 0 13 17" fill="none" xmlns="http://www.w3.org/2000/svg">
<path d="M5.76562 12.75H4.21875V0.9375C4.21875 0.65625 3.9375 0.375 3.65625 0.375H3.09375C2.77734 0.375 2.53125 0.65625 2.53125 0.9375V12.75H0.984375H0.949219C0.738281 12.75 0.527344 12.9609 0.527344 13.1719C0.527344 13.2773 0.597656 13.418 0.667969 13.4883L3.05859 16.0195C3.12891 16.0898 3.26953 16.125 3.33984 16.125C3.44531 16.125 3.58594 16.0898 3.65625 16.0195L6.04688 13.4883C6.11719 13.418 6.15234 13.2773 6.15234 13.1719C6.15234 12.9609 5.97656 12.7852 5.76562 12.75ZM12.7969 3.04688L10.4062 0.515625C10.3359 0.445312 10.1953 0.410156 10.125 0.410156C10.0195 0.410156 9.87891 0.445312 9.80859 0.515625L7.41797 3.04688C7.34766 3.11719 7.3125 3.25781 7.3125 3.32812C7.3125 3.57422 7.48828 3.75 7.73438 3.75H9.28125V15.5625C9.28125 15.8789 9.52734 16.125 9.84375 16.125H10.4062C10.6875 16.125 10.9688 15.8789 10.9688 15.5625V3.75H12.5156C12.7266 3.75 12.9023 3.57422 12.9023 3.32812C12.9023 3.25781 12.8672 3.11719 12.7969 3.04688Z" fill="#F10088"/>
</svg>
