<svg width="24" height="19" viewBox="0 0 24 19" fill="none" xmlns="http://www.w3.org/2000/svg">
<path d="M21.8765 5.875H19.064V4.1875C19.064 3.83594 19.1694 3.48438 19.3804 3.16797C19.521 3.02734 19.4858 2.81641 19.3452 2.67578L18.7827 2.04297C18.6069 1.83203 18.2905 1.83203 18.1499 2.04297C17.6226 2.64063 17.3765 3.41406 17.3765 4.1875V5.875L13.2983 5.875L11.2593 1.12891C11.0132 0.601563 10.521 0.25 9.9585 0.25L5.28271 0.25C4.47412 0.25 3.87646 0.882813 3.87646 1.65625L3.87646 6.75391C3.45459 6.78906 3.03271 6.96484 2.75146 7.24609L1.8374 8.16016C1.521 8.47656 1.34521 8.93359 1.34521 9.39062C1.34521 9.56641 1.34521 9.74219 1.41553 9.88281C0.853027 10.1992 0.501465 10.7969 0.501465 11.4297L0.501465 12.6953C0.501465 13.3633 0.853027 13.9609 1.41553 14.2422C1.34521 14.418 1.34521 14.5938 1.34521 14.7695C1.34521 15.2266 1.521 15.6836 1.8374 16L2.75146 16.9141C3.06787 17.2305 3.5249 17.4062 3.98193 17.4062C4.15771 17.4062 4.3335 17.4062 4.50928 17.3359C4.79053 17.8984 5.38818 18.25 6.05615 18.25H7.32178C7.98975 18.25 8.55225 17.8984 8.86865 17.3359C8.97412 17.3711 9.22021 17.4062 9.36084 17.4062C9.81787 17.4062 10.2749 17.2305 10.5913 16.9141L11.5054 16C11.8218 15.6836 11.9976 15.2266 11.9976 14.7695C11.9976 14.5938 11.9976 14.418 11.9272 14.2422C12.1733 14.1367 12.3491 13.9609 12.4897 13.75H15.3022C15.1968 14.1367 15.1265 14.4883 15.1265 14.875C15.1265 16.7734 16.603 18.25 18.5015 18.25C20.3647 18.25 21.8765 16.7734 21.8765 14.875C21.8765 13.9609 21.4897 13.1172 20.8569 12.5195L22.6499 10.7266C22.8608 10.5156 23.0015 10.2344 23.0015 9.91797L23.0015 7C23.0015 6.40234 22.4741 5.875 21.8765 5.875ZM5.56396 1.9375L9.78271 1.9375L11.4702 5.875L6.021 5.875C5.88037 5.875 5.70459 5.91016 5.56396 5.98047L5.56396 1.9375ZM11.189 12.6953C11.189 12.7656 11.1538 12.7656 11.1187 12.7656H10.4858C10.2397 13.5742 10.2397 13.5391 9.85303 14.2773L10.3101 14.6992C10.3101 14.7344 10.3101 14.8047 10.3101 14.8047L9.396 15.7188H9.29053L8.86865 15.2617C8.13037 15.6484 8.16553 15.6484 7.39209 15.8945L7.39209 16.4922C7.39209 16.5625 7.35693 16.5625 7.32178 16.5625H6.05615C5.98584 16.5625 5.98584 16.5625 5.98584 16.4922L5.98584 15.8945C5.17725 15.6484 5.2124 15.6484 4.47412 15.2617L4.05225 15.7188H3.94678L3.03271 14.8047C3.03271 14.8047 3.03271 14.7344 3.03271 14.6992L3.48975 14.2773C3.10303 13.5391 3.10303 13.5742 2.85693 12.7656H2.25928C2.18896 12.7656 2.18896 12.7656 2.18896 12.6953L2.18896 11.4297C2.18896 11.3945 2.18896 11.3594 2.25928 11.3594H2.85693C3.10303 10.5859 3.10303 10.6211 3.48975 9.88281L3.03271 9.46094C3.03271 9.42578 3.03271 9.35547 3.03271 9.35547L3.94678 8.44141H4.05225L4.47412 8.89844C5.2124 8.51172 5.17725 8.51172 5.98584 8.26562V7.63281C5.98584 7.59766 5.98584 7.5625 6.05615 7.5625H7.32178C7.35693 7.5625 7.39209 7.59766 7.39209 7.63281V8.26563C8.16553 8.51172 8.13037 8.47656 8.86865 8.89844L9.29053 8.44141H9.396L10.3101 9.35547C10.3101 9.35547 10.3101 9.42578 10.3101 9.46094L9.85303 9.88281C10.2749 10.6211 10.2397 10.5859 10.4858 11.3594H11.1187C11.1538 11.3594 11.189 11.3945 11.189 11.4297V12.6953ZM18.5015 16.5625C17.5522 16.5625 16.814 15.8242 16.814 14.875C16.814 13.9609 17.5522 13.1875 18.5015 13.1875C19.4155 13.1875 20.189 13.9609 20.189 14.875C20.189 15.8242 19.4155 16.5625 18.5015 16.5625ZM21.314 9.70703L19.3452 11.6406C19.064 11.5703 18.7827 11.5 18.5015 11.5C17.7983 11.5 17.1655 11.7109 16.6382 12.0625H12.8765V11.4297C12.8765 10.7969 12.4897 10.1992 11.9272 9.88281C11.9976 9.74219 11.9976 9.56641 11.9976 9.39063C11.9976 8.93359 11.8218 8.47656 11.5054 8.16016L10.9077 7.5625L21.314 7.5625L21.314 9.70703ZM7.91943 10.1992C7.56787 9.98828 7.146 9.8125 6.68896 9.8125C6.19678 9.8125 5.7749 9.98828 5.42334 10.1992C5.2124 10.3398 4.93115 10.6211 4.79053 10.832C4.57959 11.1836 4.43896 11.6055 4.43896 12.0625C4.43896 13.3281 5.42334 14.3125 6.68896 14.3125C7.91943 14.3125 8.93896 13.3281 8.93896 12.0625C8.93896 11.6055 8.76318 11.1836 8.55225 10.832C8.41162 10.6211 8.13037 10.3398 7.91943 10.1992ZM6.68896 12.625C6.37256 12.625 6.12646 12.3789 6.12646 12.0625C6.12646 11.7813 6.37256 11.5 6.68896 11.5C6.97021 11.5 7.25146 11.7813 7.25146 12.0625C7.25146 12.3789 6.97021 12.625 6.68896 12.625Z" fill="#630BF1"/>
</svg>
