<svg width="22" height="24" viewBox="0 0 22 24" fill="none" xmlns="http://www.w3.org/2000/svg">
<path fill-rule="evenodd" clip-rule="evenodd" d="M10.6125 3.13943C11.5654 3.0433 12.4835 3.28696 13.3093 3.88194C14.0138 4.38961 14.6081 5.28399 14.799 6.22375C14.9226 6.83265 15.5164 7.22603 16.1253 7.10239C16.7342 6.97875 17.1276 6.38491 17.004 5.77602C16.7013 4.28547 15.7918 2.89749 14.6246 2.05646C13.3644 1.14839 11.8992 0.748015 10.3849 0.900974C8.90568 1.05175 7.59745 1.63059 6.45743 2.88787C5.49645 3.9477 4.87647 5.29873 4.87647 6.99989V9.87489H4.00147C2.27557 9.87489 0.876465 11.274 0.876465 12.9999V19.9999C0.876465 21.7258 2.27557 23.1249 4.00147 23.1249H18.0015C19.7274 23.1249 21.1265 21.7258 21.1265 19.9999V12.9999C21.1265 11.274 19.7274 9.87489 18.0015 9.87489H7.12647V6.99989C7.12647 5.90345 7.50648 5.08055 8.12425 4.39923C8.86501 3.58227 9.64698 3.23794 10.6125 3.13943ZM3.12646 12.9999C3.12646 12.5166 3.51822 12.1249 4.00147 12.1249H18.0015C18.4847 12.1249 18.8765 12.5166 18.8765 12.9999V19.9999C18.8765 20.4831 18.4847 20.8749 18.0015 20.8749H4.00147C3.51822 20.8749 3.12646 20.4831 3.12646 19.9999V12.9999Z" fill="white"/>
</svg>
