<svg width="19" height="17" viewBox="0 0 19 17" fill="none" xmlns="http://www.w3.org/2000/svg">
<path fill-rule="evenodd" clip-rule="evenodd" d="M16.25 2.625V3.1875C17.4805 3.1875 18.5 4.20703 18.5 5.4375V13.875C18.5 15.1406 17.4805 16.125 16.25 16.125H3.875C1.97656 16.125 0.5 14.6484 0.5 12.75V3.75C0.5 1.88672 1.97656 0.375 3.875 0.375H14C15.2305 0.375 16.25 1.39453 16.25 2.625ZM16.25 14.4375C16.5312 14.4375 16.8125 14.1914 16.8125 13.875V5.4375C16.8125 5.15625 16.5312 4.875 16.25 4.875H4.4375C4.12109 4.875 3.875 4.62891 3.875 4.3125C3.875 4.03125 4.12109 3.75 4.4375 3.75H14.5625V2.625C14.5625 2.34375 14.2812 2.0625 14 2.0625H3.875C2.92578 2.0625 2.1875 2.83594 2.1875 3.75V12.75C2.1875 13.6992 2.92578 14.4375 3.875 14.4375H16.25ZM12.875 9.375C12.875 8.77734 13.3672 8.25 14 8.25C14.5977 8.25 15.125 8.77734 15.125 9.375C15.125 10.0078 14.5977 10.5 14 10.5C13.3672 10.5 12.875 10.0078 12.875 9.375Z" fill="#B8C5EC"/>
</svg>
