<svg width="16" height="16" viewBox="0 0 16 16" fill="none" xmlns="http://www.w3.org/2000/svg">
<path fill-rule="evenodd" clip-rule="evenodd" d="M4.70959 0.802678C4.85024 0.662025 5.04101 0.583008 5.23992 0.583008H10.7599C10.9588 0.583008 11.1496 0.662025 11.2902 0.802678L15.1969 4.70934C15.3376 4.85 15.4166 5.04076 15.4166 5.23967V10.7597C15.4166 10.9586 15.3376 11.1494 15.1969 11.29L11.2902 15.1967C11.1496 15.3373 10.9588 15.4163 10.7599 15.4163H5.23992C5.04101 15.4163 4.85024 15.3373 4.70959 15.1967L0.802922 11.29C0.66227 11.1494 0.583252 10.9586 0.583252 10.7597V5.23967C0.583252 5.04076 0.66227 4.85 0.802922 4.70934L4.70959 0.802678ZM5.55058 2.08301L2.08325 5.55033V10.449L5.55058 13.9163H10.4493L13.9166 10.449V5.55033L10.4493 2.08301H5.55058ZM7.99992 4.58301C8.41413 4.58301 8.74992 4.91879 8.74992 5.33301V7.99967C8.74992 8.41389 8.41413 8.74967 7.99992 8.74967C7.58571 8.74967 7.24992 8.41389 7.24992 7.99967V5.33301C7.24992 4.91879 7.58571 4.58301 7.99992 4.58301ZM7.24992 10.6663C7.24992 10.2521 7.58571 9.91634 7.99992 9.91634H8.00659C8.4208 9.91634 8.75659 10.2521 8.75659 10.6663C8.75659 11.0806 8.4208 11.4163 8.00659 11.4163H7.99992C7.58571 11.4163 7.24992 11.0806 7.24992 10.6663Z" fill="#FF3A30"/>
</svg>
