<svg width="140" height="24" viewBox="0 0 140 24" fill="none" xmlns="http://www.w3.org/2000/svg">
<g clip-path="url(#clip0)">
<path d="M16.144 16.001L15.376 14.261H10.864L10.096 16.001H8.584L12.352 7.60098H13.912L17.668 16.001H16.144ZM13.12 9.01698L11.404 12.989H14.836L13.12 9.01698ZM22.912 10.073H24.256V16.001H23.056L23.044 15.233C22.54 15.825 21.868 16.121 21.028 16.121C20.268 16.121 19.66 15.873 19.204 15.377C18.756 14.873 18.532 14.197 18.532 13.349V10.073H19.876V13.265C19.876 13.785 20 14.189 20.248 14.477C20.496 14.765 20.836 14.909 21.268 14.909C21.756 14.909 22.152 14.749 22.456 14.429C22.76 14.109 22.912 13.697 22.912 13.193V10.073ZM30.7773 7.60098H32.1213V16.001H30.9213L30.9093 15.209C30.4213 15.825 29.6933 16.133 28.7253 16.133C27.8773 16.133 27.1773 15.849 26.6253 15.281C26.0813 14.713 25.8093 13.965 25.8093 13.037C25.8093 12.109 26.0813 11.361 26.6253 10.793C27.1773 10.225 27.8773 9.94098 28.7253 9.94098C29.5973 9.94098 30.2813 10.197 30.7773 10.709V7.60098ZM27.6573 14.393C27.9933 14.737 28.4293 14.909 28.9653 14.909C29.5013 14.909 29.9373 14.737 30.2733 14.393C30.6093 14.041 30.7773 13.589 30.7773 13.037C30.7773 12.485 30.6093 12.037 30.2733 11.693C29.9373 11.341 29.5013 11.165 28.9653 11.165C28.4293 11.165 27.9933 11.341 27.6573 11.693C27.3213 12.037 27.1533 12.485 27.1533 13.037C27.1533 13.589 27.3213 14.041 27.6573 14.393ZM34.7239 9.18498C34.4759 9.18498 34.2719 9.10898 34.1119 8.95698C33.9519 8.79698 33.8719 8.60098 33.8719 8.36898C33.8719 8.12098 33.9519 7.92098 34.1119 7.76898C34.2719 7.60898 34.4759 7.52898 34.7239 7.52898C34.9799 7.52898 35.1879 7.60898 35.3479 7.76898C35.5159 7.92098 35.5999 8.12098 35.5999 8.36898C35.5999 8.60098 35.5159 8.79698 35.3479 8.95698C35.1879 9.10898 34.9799 9.18498 34.7239 9.18498ZM34.0519 16.001V10.073H35.3959V16.001H34.0519ZM40.8922 14.717L41.2642 15.797C40.8322 15.989 40.3882 16.085 39.9322 16.085C39.3082 16.085 38.8282 15.905 38.4922 15.545C38.1562 15.185 37.9882 14.657 37.9882 13.961V11.213H36.8722V10.073H37.9882V8.52498L39.3202 8.38098V10.073H41.0242V11.213H39.3202V13.961C39.3202 14.585 39.5962 14.897 40.1482 14.897C40.3882 14.897 40.6362 14.837 40.8922 14.717ZM43.2341 9.18498C42.9861 9.18498 42.7821 9.10898 42.6221 8.95698C42.4621 8.79698 42.3821 8.60098 42.3821 8.36898C42.3821 8.12098 42.4621 7.92098 42.6221 7.76898C42.7821 7.60898 42.9861 7.52898 43.2341 7.52898C43.4901 7.52898 43.6981 7.60898 43.8581 7.76898C44.0261 7.92098 44.1101 8.12098 44.1101 8.36898C44.1101 8.60098 44.0261 8.79698 43.8581 8.95698C43.6981 9.10898 43.4901 9.18498 43.2341 9.18498ZM42.5621 16.001V10.073H43.9061V16.001H42.5621ZM49.1144 9.95298C49.8824 9.95298 50.4944 10.205 50.9504 10.709C51.4144 11.213 51.6464 11.885 51.6464 12.725V16.001H50.3024V12.809C50.3024 12.289 50.1744 11.885 49.9184 11.597C49.6624 11.309 49.3104 11.165 48.8624 11.165C48.3744 11.165 47.9744 11.329 47.6624 11.657C47.3504 11.977 47.1944 12.385 47.1944 12.881V16.001H45.8504V10.073H47.0504L47.0624 10.853C47.5664 10.253 48.2504 9.95298 49.1144 9.95298ZM59.4863 12.929C59.4863 14.009 58.9823 14.769 57.9743 15.209C58.9583 15.569 59.4503 16.197 59.4503 17.093C59.4503 17.845 59.1623 18.441 58.5863 18.881C58.0103 19.329 57.2463 19.553 56.2943 19.553C55.3183 19.553 54.5423 19.309 53.9663 18.821C53.3903 18.333 53.1223 17.689 53.1623 16.889H54.4823C54.4663 17.329 54.6223 17.681 54.9503 17.945C55.2863 18.209 55.7343 18.341 56.2943 18.341C56.8383 18.341 57.2743 18.225 57.6023 17.993C57.9303 17.761 58.0943 17.457 58.0943 17.081C58.0943 16.705 57.9343 16.409 57.6143 16.193C57.3023 15.985 56.8703 15.881 56.3183 15.881C55.3343 15.881 54.5503 15.617 53.9663 15.089C53.3903 14.553 53.1023 13.833 53.1023 12.929C53.1023 12.065 53.3983 11.353 53.9903 10.793C54.5903 10.225 55.3503 9.94098 56.2703 9.94098C56.9023 9.94098 57.4383 10.073 57.8783 10.337L58.6343 9.41298L59.6063 10.157L58.7783 11.117C59.2503 11.669 59.4863 12.273 59.4863 12.929ZM54.9503 14.189C55.2943 14.509 55.7423 14.669 56.2943 14.669C56.8463 14.669 57.2903 14.509 57.6263 14.189C57.9703 13.869 58.1423 13.449 58.1423 12.929C58.1423 12.401 57.9743 11.977 57.6383 11.657C57.3023 11.329 56.8543 11.165 56.2943 11.165C55.7343 11.165 55.2863 11.329 54.9503 11.657C54.6143 11.977 54.4463 12.401 54.4463 12.929C54.4463 13.449 54.6143 13.869 54.9503 14.189ZM65.0591 9.18498C64.8111 9.18498 64.6071 9.10898 64.4471 8.95698C64.2871 8.79698 64.2071 8.60098 64.2071 8.36898C64.2071 8.12098 64.2871 7.92098 64.4471 7.76898C64.6071 7.60898 64.8111 7.52898 65.0591 7.52898C65.3151 7.52898 65.5231 7.60898 65.6831 7.76898C65.8511 7.92098 65.9351 8.12098 65.9351 8.36898C65.9351 8.60098 65.8511 8.79698 65.6831 8.95698C65.5231 9.10898 65.3151 9.18498 65.0591 9.18498ZM64.3871 16.001V10.073H65.7311V16.001H64.3871ZM70.9394 9.95298C71.7074 9.95298 72.3194 10.205 72.7754 10.709C73.2394 11.213 73.4714 11.885 73.4714 12.725V16.001H72.1274V12.809C72.1274 12.289 71.9994 11.885 71.7434 11.597C71.4874 11.309 71.1354 11.165 70.6874 11.165C70.1994 11.165 69.7994 11.329 69.4874 11.657C69.1754 11.977 69.0194 12.385 69.0194 12.881V16.001H67.6754V10.073H68.8754L68.8874 10.853C69.3914 10.253 70.0754 9.95298 70.9394 9.95298ZM81.9482 9.94098C82.8202 9.94098 83.5282 10.229 84.0722 10.805C84.6162 11.381 84.8882 12.125 84.8882 13.037C84.8882 13.949 84.6162 14.693 84.0722 15.269C83.5282 15.845 82.8202 16.133 81.9482 16.133C81.0922 16.133 80.4162 15.873 79.9202 15.353V18.737H78.5762V10.073H79.7762L79.7882 10.865C80.2762 10.249 80.9962 9.94098 81.9482 9.94098ZM81.7322 14.909C82.2682 14.909 82.7042 14.737 83.0402 14.393C83.3762 14.041 83.5442 13.589 83.5442 13.037C83.5442 12.485 83.3762 12.037 83.0402 11.693C82.7042 11.341 82.2682 11.165 81.7322 11.165C81.2042 11.165 80.7682 11.341 80.4242 11.693C80.0882 12.037 79.9202 12.485 79.9202 13.037C79.9202 13.589 80.0882 14.041 80.4242 14.393C80.7682 14.737 81.2042 14.909 81.7322 14.909ZM89.4468 9.95298C90.0628 9.95298 90.5628 10.125 90.9468 10.469L90.3468 11.561C90.0268 11.345 89.6948 11.237 89.3508 11.237C88.8708 11.237 88.4868 11.405 88.1988 11.741C87.9188 12.077 87.7788 12.533 87.7788 13.109V16.001H86.4348V10.073H87.6348L87.6468 10.985C88.0948 10.297 88.6948 9.95298 89.4468 9.95298ZM94.675 16.133C93.723 16.133 92.955 15.845 92.371 15.269C91.795 14.685 91.507 13.941 91.507 13.037C91.507 12.133 91.795 11.393 92.371 10.817C92.955 10.233 93.723 9.94098 94.675 9.94098C95.619 9.94098 96.379 10.233 96.955 10.817C97.539 11.393 97.831 12.133 97.831 13.037C97.831 13.941 97.539 14.685 96.955 15.269C96.379 15.845 95.619 16.133 94.675 16.133ZM94.675 14.909C95.211 14.909 95.647 14.729 95.983 14.369C96.319 14.009 96.487 13.565 96.487 13.037C96.487 12.509 96.319 12.065 95.983 11.705C95.647 11.345 95.211 11.165 94.675 11.165C94.131 11.165 93.691 11.345 93.355 11.705C93.019 12.065 92.851 12.509 92.851 13.037C92.851 13.565 93.019 14.009 93.355 14.369C93.691 14.729 94.131 14.909 94.675 14.909ZM105.375 12.929C105.375 14.009 104.871 14.769 103.863 15.209C104.847 15.569 105.339 16.197 105.339 17.093C105.339 17.845 105.051 18.441 104.475 18.881C103.899 19.329 103.135 19.553 102.183 19.553C101.207 19.553 100.431 19.309 99.8546 18.821C99.2786 18.333 99.0106 17.689 99.0506 16.889H100.371C100.355 17.329 100.511 17.681 100.839 17.945C101.175 18.209 101.623 18.341 102.183 18.341C102.727 18.341 103.163 18.225 103.491 17.993C103.819 17.761 103.983 17.457 103.983 17.081C103.983 16.705 103.823 16.409 103.503 16.193C103.191 15.985 102.759 15.881 102.207 15.881C101.223 15.881 100.439 15.617 99.8546 15.089C99.2786 14.553 98.9906 13.833 98.9906 12.929C98.9906 12.065 99.2866 11.353 99.8786 10.793C100.479 10.225 101.239 9.94098 102.159 9.94098C102.791 9.94098 103.327 10.073 103.767 10.337L104.523 9.41298L105.495 10.157L104.667 11.117C105.139 11.669 105.375 12.273 105.375 12.929ZM100.839 14.189C101.183 14.509 101.631 14.669 102.183 14.669C102.735 14.669 103.179 14.509 103.515 14.189C103.859 13.869 104.031 13.449 104.031 12.929C104.031 12.401 103.863 11.977 103.527 11.657C103.191 11.329 102.743 11.165 102.183 11.165C101.623 11.165 101.175 11.329 100.839 11.657C100.503 11.977 100.335 12.401 100.335 12.929C100.335 13.449 100.503 13.869 100.839 14.189ZM110.023 9.95298C110.639 9.95298 111.139 10.125 111.523 10.469L110.923 11.561C110.603 11.345 110.271 11.237 109.927 11.237C109.447 11.237 109.063 11.405 108.775 11.741C108.495 12.077 108.355 12.533 108.355 13.109V16.001H107.011V10.073H108.211L108.223 10.985C108.671 10.297 109.271 9.95298 110.023 9.95298ZM115.155 9.95298C116.195 9.95298 116.987 10.273 117.531 10.913C118.075 11.553 118.299 12.429 118.203 13.541H113.463C113.519 13.973 113.715 14.317 114.051 14.573C114.387 14.829 114.815 14.957 115.335 14.957C115.671 14.957 115.995 14.901 116.307 14.789C116.619 14.677 116.863 14.529 117.039 14.345L117.855 15.137C117.559 15.457 117.183 15.709 116.727 15.893C116.279 16.077 115.803 16.169 115.299 16.169C114.323 16.169 113.543 15.885 112.959 15.317C112.375 14.749 112.083 13.989 112.083 13.037C112.083 12.117 112.363 11.373 112.923 10.805C113.491 10.237 114.235 9.95298 115.155 9.95298ZM115.191 11.117C114.727 11.117 114.347 11.237 114.051 11.477C113.755 11.717 113.563 12.057 113.475 12.497H116.919C116.871 12.073 116.691 11.737 116.379 11.489C116.075 11.241 115.679 11.117 115.191 11.117ZM121.972 16.145C120.972 16.145 120.08 15.853 119.296 15.269L119.92 14.297C120.472 14.737 121.168 14.957 122.008 14.957C122.8 14.957 123.196 14.733 123.196 14.285C123.196 14.077 123.092 13.917 122.884 13.805C122.684 13.693 122.356 13.613 121.9 13.565C121.124 13.493 120.524 13.301 120.1 12.989C119.684 12.669 119.476 12.253 119.476 11.741C119.476 11.197 119.712 10.761 120.184 10.433C120.656 10.097 121.276 9.92898 122.044 9.92898C122.948 9.92898 123.732 10.157 124.396 10.613L123.808 11.573C123.28 11.237 122.712 11.069 122.104 11.069C121.232 11.069 120.796 11.293 120.796 11.741C120.796 11.933 120.888 12.085 121.072 12.197C121.264 12.301 121.576 12.377 122.008 12.425C122.888 12.521 123.528 12.717 123.928 13.013C124.328 13.309 124.528 13.737 124.528 14.297C124.528 14.849 124.292 15.297 123.82 15.641C123.356 15.977 122.74 16.145 121.972 16.145ZM128.272 16.145C127.272 16.145 126.38 15.853 125.596 15.269L126.22 14.297C126.772 14.737 127.468 14.957 128.308 14.957C129.1 14.957 129.496 14.733 129.496 14.285C129.496 14.077 129.392 13.917 129.184 13.805C128.984 13.693 128.656 13.613 128.2 13.565C127.424 13.493 126.824 13.301 126.4 12.989C125.984 12.669 125.776 12.253 125.776 11.741C125.776 11.197 126.012 10.761 126.484 10.433C126.956 10.097 127.576 9.92898 128.344 9.92898C129.248 9.92898 130.032 10.157 130.696 10.613L130.108 11.573C129.58 11.237 129.012 11.069 128.404 11.069C127.532 11.069 127.096 11.293 127.096 11.741C127.096 11.933 127.188 12.085 127.372 12.197C127.564 12.301 127.876 12.377 128.308 12.425C129.188 12.521 129.828 12.717 130.228 13.013C130.628 13.309 130.828 13.737 130.828 14.297C130.828 14.849 130.592 15.297 130.12 15.641C129.656 15.977 129.04 16.145 128.272 16.145Z" fill="white"/>
</g>
<path d="M12.5 1.00098H127.5V-0.999023H12.5V1.00098ZM127.5 23.001H12.5V25.001H127.5V23.001ZM12.5 23.001C6.42487 23.001 1.5 18.0761 1.5 12.001H-0.5C-0.5 19.1807 5.3203 25.001 12.5 25.001V23.001ZM138.5 12.001C138.5 18.0761 133.575 23.001 127.5 23.001V25.001C134.68 25.001 140.5 19.1807 140.5 12.001H138.5ZM127.5 1.00098C133.575 1.00098 138.5 5.92584 138.5 12.001H140.5C140.5 4.82127 134.68 -0.999023 127.5 -0.999023V1.00098ZM12.5 -0.999023C5.3203 -0.999023 -0.5 4.82128 -0.5 12.001H1.5C1.5 5.92584 6.42487 1.00098 12.5 1.00098V-0.999023Z" fill="url(#paint0_linear)"/>
<defs>
<linearGradient id="paint0_linear" x1="139.5" y1="24.001" x2="0.5" y2="24.001" gradientUnits="userSpaceOnUse">
<stop stop-color="#F10088"/>
<stop offset="1" stop-color="#630BF1"/>
</linearGradient>
<clipPath id="clip0">
<path d="M0.5 12.001C0.5 5.37356 5.87258 0.000976562 12.5 0.000976562H127.5C134.127 0.000976562 139.5 5.37356 139.5 12.001C139.5 18.6284 134.127 24.001 127.5 24.001H12.5C5.87259 24.001 0.5 18.6284 0.5 12.001Z" fill="white"/>
</clipPath>
</defs>
</svg>
