<svg width="20" height="19" viewBox="0 0 20 19" fill="none" xmlns="http://www.w3.org/2000/svg">
<path d="M3.3125 5.74902H7.6875C7.84375 5.74902 8 5.63184 8 5.43652V4.81152C8 4.65527 7.84375 4.49902 7.6875 4.49902L3.3125 4.49902C3.11719 4.49902 3 4.65527 3 4.81152L3 5.43652C3 5.63184 3.11719 5.74902 3.3125 5.74902ZM3.50781 15.4365L3.9375 15.8662C4.05469 16.0225 4.25 16.0225 4.36719 15.8662L5.5 14.7725L6.59375 15.8662C6.71094 16.0225 6.90625 16.0225 7.02344 15.8662L7.45312 15.4365C7.60937 15.3193 7.60937 15.124 7.45312 15.0068L6.35937 13.874L7.45312 12.7803C7.60937 12.6631 7.60937 12.4678 7.45312 12.3506L7.02344 11.9209C6.90625 11.7646 6.71094 11.7646 6.59375 11.9209L5.5 13.0146L4.36719 11.9209C4.25 11.7646 4.05469 11.7646 3.9375 11.9209L3.50781 12.3506C3.35156 12.4678 3.35156 12.6631 3.50781 12.7803L4.60156 13.874L3.50781 15.0068C3.42969 15.0459 3.39062 15.1631 3.39062 15.2021C3.39062 15.2803 3.42969 15.3975 3.50781 15.4365ZM18 0.124023L1.75 0.124023C1.04688 0.124023 0.5 0.709961 0.5 1.37402L0.5 17.624C0.5 18.3271 1.04687 18.874 1.75 18.874L18 18.874C18.6641 18.874 19.25 18.3271 19.25 17.624L19.25 1.37402C19.25 0.709961 18.6641 0.124023 18 0.124023ZM9.25 17.624H1.75L1.75 10.124L9.25 10.124L9.25 17.624ZM9.25 8.87402L1.75 8.87402L1.75 1.37402L9.25 1.37402L9.25 8.87402ZM18 17.624L10.5 17.624L10.5 10.124L18 10.124L18 17.624ZM18 8.87402L10.5 8.87402L10.5 1.37402L18 1.37402V8.87402ZM12.0625 5.74902H13.625L13.625 7.31152C13.625 7.50684 13.7422 7.62402 13.9375 7.62402L14.5625 7.62402C14.7187 7.62402 14.875 7.50684 14.875 7.31152L14.875 5.74902H16.4375C16.5938 5.74902 16.75 5.63184 16.75 5.43652V4.81152C16.75 4.65527 16.5938 4.49902 16.4375 4.49902L14.875 4.49902V2.93652C14.875 2.78027 14.7188 2.62402 14.5625 2.62402H13.9375C13.7422 2.62402 13.625 2.78027 13.625 2.93652V4.49902H12.0625C11.8672 4.49902 11.75 4.65527 11.75 4.81152V5.43652C11.75 5.63184 11.8672 5.74902 12.0625 5.74902ZM12.0625 15.749H16.4375C16.5937 15.749 16.75 15.6318 16.75 15.4365V14.8115C16.75 14.6553 16.5937 14.499 16.4375 14.499H12.0625C11.8672 14.499 11.75 14.6553 11.75 14.8115V15.4365C11.75 15.6318 11.8672 15.749 12.0625 15.749ZM12.0625 13.249H16.4375C16.5937 13.249 16.75 13.1318 16.75 12.9365V12.3115C16.75 12.1553 16.5938 11.999 16.4375 11.999H12.0625C11.8672 11.999 11.75 12.1553 11.75 12.3115V12.9365C11.75 13.1318 11.8672 13.249 12.0625 13.249Z" fill="#F10088"/>
</svg>
