<svg width="22" height="23" viewBox="0 0 22 23" fill="none" xmlns="http://www.w3.org/2000/svg">
<path fill-rule="evenodd" clip-rule="evenodd" d="M9.01657 3.21542C10.9096 2.78771 12.8902 2.9834 14.663 3.77329C15.1675 3.99807 15.7587 3.77134 15.9834 3.26687C16.2082 2.76239 15.9815 2.17122 15.477 1.94644C13.3103 0.981007 10.8896 0.741837 8.57581 1.2646C6.26206 1.78736 4.17929 3.04404 2.63811 4.84722C1.09693 6.6504 0.179919 8.90346 0.0238445 11.2704C-0.13223 13.6373 0.480993 15.9913 1.77206 17.9812C3.06312 19.9711 4.96285 21.4904 7.18792 22.3125C9.41299 23.1345 11.8442 23.2153 14.1189 22.5427C16.3936 21.8702 18.39 20.4803 19.8103 18.5804C21.2306 16.6806 21.9987 14.3719 22 11.9999V11.0799C22 10.5276 21.5523 10.0799 21 10.0799C20.4477 10.0799 20 10.5276 20 11.0799V11.9993C19.9989 13.9401 19.3705 15.8285 18.2084 17.3829C17.0464 18.9374 15.413 20.0745 13.5518 20.6248C11.6907 21.1751 9.70153 21.109 7.88103 20.4364C6.06051 19.7638 4.50619 18.5208 3.44987 16.8927C2.39354 15.2645 1.89181 13.3386 2.01951 11.402C2.14721 9.4654 2.89749 7.62199 4.15845 6.14666C5.41942 4.67133 7.12351 3.64314 9.01657 3.21542ZM21.7075 4.70662C22.0978 4.3159 22.0975 3.68273 21.7068 3.29241C21.316 2.90208 20.6829 2.90239 20.2925 3.29311L10.9997 12.5953L8.70711 10.3028C8.31659 9.91224 7.68342 9.91224 7.2929 10.3028C6.90238 10.6933 6.90238 11.3264 7.2929 11.717L10.2929 14.717C10.4805 14.9046 10.735 15.0099 11.0003 15.0099C11.2656 15.0098 11.52 14.9043 11.7075 14.7166L21.7075 4.70662Z" fill="white"/>
</svg>
