<svg width="21" height="20" viewBox="0 0 21 20" fill="none" xmlns="http://www.w3.org/2000/svg">
<path fill-rule="evenodd" clip-rule="evenodd" d="M2.29436 2.29289C2.48189 2.10536 2.73625 2 3.00146 2H7.00146C7.55375 2 8.00146 1.55228 8.00146 1C8.00146 0.447715 7.55375 0 7.00146 0H3.00146C2.20582 0 1.44275 0.31607 0.880144 0.87868C0.317535 1.44129 0.00146484 2.20435 0.00146484 3V17C0.00146484 17.7957 0.317535 18.5587 0.880144 19.1213C1.44275 19.6839 2.20582 20 3.00146 20H7.00146C7.55375 20 8.00146 19.5523 8.00146 19C8.00146 18.4477 7.55375 18 7.00146 18H3.00146C2.73625 18 2.48189 17.8946 2.29436 17.7071C2.10682 17.5196 2.00146 17.2652 2.00146 17V3C2.00146 2.73478 2.10682 2.48043 2.29436 2.29289ZM14.7086 4.29289C14.318 3.90237 13.6849 3.90237 13.2944 4.29289C12.9038 4.68342 12.9038 5.31658 13.2944 5.70711L16.5873 9H7.00146C6.44918 9 6.00146 9.44771 6.00146 10C6.00146 10.5523 6.44918 11 7.00146 11H16.5873L13.2944 14.2929C12.9038 14.6834 12.9038 15.3166 13.2944 15.7071C13.6849 16.0976 14.318 16.0976 14.7086 15.7071L19.7086 10.7071C19.8961 10.5196 20.0015 10.2652 20.0015 10C20.0015 9.73478 19.8961 9.48043 19.7086 9.29289L14.7086 4.29289Z" fill="white"/>
</svg>
