<svg width="83" height="48" viewBox="0 0 83 48" fill="none" xmlns="http://www.w3.org/2000/svg">
<rect width="83" height="48" rx="12" fill="#080114"/>
<path fill-rule="evenodd" clip-rule="evenodd" d="M59.0002 17.3335C59.4604 17.3335 59.8335 17.7066 59.8335 18.1668V23.1668H64.8335C65.2937 23.1668 65.6668 23.5399 65.6668 24.0002C65.6668 24.4604 65.2937 24.8335 64.8335 24.8335H59.8335V29.8335C59.8335 30.2937 59.4604 30.6668 59.0002 30.6668C58.5399 30.6668 58.1668 30.2937 58.1668 29.8335V24.8335H53.1668C52.7066 24.8335 52.3335 24.4604 52.3335 24.0002C52.3335 23.5399 52.7066 23.1668 53.1668 23.1668H58.1668V18.1668C58.1668 17.7066 58.5399 17.3335 59.0002 17.3335Z" fill="#B8C5EC"/>
<path fill-rule="evenodd" clip-rule="evenodd" d="M17.3335 23.9998C17.3335 23.5396 17.7066 23.1665 18.1668 23.1665H29.8335C30.2937 23.1665 30.6668 23.5396 30.6668 23.9998C30.6668 24.4601 30.2937 24.8332 29.8335 24.8332H18.1668C17.7066 24.8332 17.3335 24.4601 17.3335 23.9998Z" fill="#B8C5EC"/>
<rect x="0.5" y="0.5" width="82" height="47" rx="11.5" stroke="#210D42" stroke-opacity="0.12"/>
</svg>
