<svg width="21" height="20" viewBox="0 0 21 20" fill="none" xmlns="http://www.w3.org/2000/svg">
<path d="M0.998047 10C0.998047 4.47715 5.4752 0 10.998 0C16.5209 0 20.998 4.47715 20.998 10C20.998 15.5228 16.5209 20 10.998 20C5.4752 20 0.998047 15.5228 0.998047 10Z" fill="#210D42" fill-opacity="0.12"/>
<path fill-rule="evenodd" clip-rule="evenodd" d="M10.9979 4.5293C10.3696 4.5293 9.86035 5.03857 9.86035 5.6668C9.86035 6.29502 10.3696 6.8043 10.9979 6.8043H11.0087C11.6369 6.8043 12.1462 6.29502 12.1462 5.6668C12.1462 5.03857 11.6369 4.5293 11.0087 4.5293H10.9979ZM12.1354 10.0001C12.1354 9.37191 11.6261 8.86263 10.9979 8.86263C10.3696 8.86263 9.86035 9.37191 9.86035 10.0001V14.3335C9.86035 14.9617 10.3696 15.471 10.9979 15.471C11.6261 15.471 12.1354 14.9617 12.1354 14.3335V10.0001Z" fill="#B8C5EC"/>
<path d="M10.998 19C6.02748 19 1.99805 14.9706 1.99805 10H-0.00195312C-0.00195312 16.0751 4.92291 21 10.998 21V19ZM19.998 10C19.998 14.9706 15.9686 19 10.998 19V21C17.0732 21 21.998 16.0751 21.998 10H19.998ZM10.998 1C15.9686 1 19.998 5.02944 19.998 10H21.998C21.998 3.92487 17.0732 -1 10.998 -1V1ZM10.998 -1C4.92291 -1 -0.00195312 3.92487 -0.00195312 10H1.99805C1.99805 5.02944 6.02748 1 10.998 1V-1Z" fill="#B8C5EC" fill-opacity="0.35"/>
</svg>
