<svg width="20" height="14" viewBox="0 0 20 14" fill="none" xmlns="http://www.w3.org/2000/svg">
<path d="M9.00226 11.6679C9.3147 11.6679 9.59589 11.9102 9.59589 12.2434C9.59589 12.5462 9.34594 12.8188 9.00226 12.8188C8.68983 12.8188 8.40863 12.5765 8.40863 12.2434C8.40863 11.9102 8.68983 11.6679 9.00226 11.6679ZM18.1879 8.15466C17.8754 8.15466 17.5942 7.91237 17.5942 7.57921C17.5942 7.27634 17.8442 7.00376 18.1879 7.00376C18.5003 7.00376 18.7815 7.24606 18.7815 7.57921C18.7815 7.88208 18.5003 8.15466 18.1879 8.15466ZM18.1879 5.82258C17.1881 5.82258 16.3757 6.61004 16.3757 7.57921C16.3757 7.76093 16.407 7.94265 16.4695 8.12437L10.502 11.2136C10.1583 10.729 9.59589 10.4565 9.00226 10.4565C8.3149 10.4565 7.69003 10.8502 7.3776 11.4256L2.0037 8.69982C1.44132 8.39695 1.00391 7.51864 1.06639 6.67061C1.09764 6.24659 1.25385 5.91344 1.47256 5.79229C1.62878 5.70143 1.785 5.73172 2.0037 5.82258L2.03494 5.85287C3.47215 6.57975 8.12744 8.94211 8.3149 9.03298C8.62734 9.15412 8.78356 9.21469 9.3147 8.9724L18.9377 4.12652C19.0939 4.06595 19.2502 3.9448 19.2502 3.73279C19.2502 3.46021 18.969 3.33907 18.969 3.33907C18.4066 3.09677 17.563 2.70305 16.7507 2.3396C15.001 1.55215 13.0014 0.643546 12.1266 0.189245C11.3768 -0.204482 10.7519 0.128672 10.6582 0.189245L10.4395 0.280105C6.47153 2.21846 1.22261 4.73226 0.910176 4.91398C0.379035 5.21685 0.0353555 5.85287 0.00411193 6.64032C-0.0583752 7.88208 0.59774 9.18441 1.53505 9.63871L7.22138 12.4857C7.34635 13.3337 8.12744 14 9.00226 14C10.0021 14 10.7831 13.2428 10.8144 12.2737L17.0631 9.00269C17.3755 9.24498 17.7817 9.36613 18.1879 9.36613C19.1877 9.36613 20 8.57867 20 7.6095C20 6.61003 19.1877 5.82258 18.1879 5.82258Z" fill="#B8C5EC"/>
</svg>
