<svg width="20" height="20" viewBox="0 0 20 20" fill="none" xmlns="http://www.w3.org/2000/svg">
<path fill-rule="evenodd" clip-rule="evenodd" d="M10.0258 0C4.51676 0 0.0517578 4.465 0.0517578 9.974C0.0517578 14.38 2.90876 18.119 6.87276 19.439C7.37176 19.529 7.55176 19.222 7.55176 18.958C7.55176 18.721 7.54376 18.093 7.54076 17.262C4.76576 17.864 4.17976 15.924 4.17976 15.924C3.72776 14.772 3.07276 14.465 3.07276 14.465C2.16776 13.846 3.14176 13.86 3.14176 13.86C4.14376 13.93 4.66876 14.888 4.66876 14.888C5.55876 16.412 7.00476 15.972 7.57076 15.717C7.66176 15.072 7.92176 14.632 8.20576 14.383C5.99176 14.132 3.66376 13.276 3.66376 9.453C3.66376 8.366 4.05276 7.474 4.68776 6.778C4.58676 6.525 4.24176 5.51 4.78676 4.138C4.78676 4.138 5.62376 3.869 7.52876 5.159C8.32676 4.938 9.17776 4.827 10.0248 4.823C10.8738 4.827 11.7258 4.938 12.5208 5.159C14.4268 3.868 15.2628 4.138 15.2628 4.138C15.8078 5.51 15.4658 6.525 15.3618 6.778C16.0018 7.474 16.3858 8.365 16.3858 9.453C16.3858 13.286 14.0558 14.128 11.8338 14.375C12.1888 14.683 12.5088 15.291 12.5088 16.221C12.5088 17.555 12.4968 18.631 12.4968 18.958C12.4968 19.225 12.6748 19.535 13.1838 19.437C17.1458 18.115 19.9998 14.379 19.9998 9.974C19.9998 4.465 15.5348 0 10.0258 0Z" fill="#B8C5EC"/>
</svg>
