<svg width="21" height="22" viewBox="0 0 21 22" fill="none" xmlns="http://www.w3.org/2000/svg">
<path fill-rule="evenodd" clip-rule="evenodd" d="M9.38752 0.210648C9.74863 -0.0702159 10.2543 -0.0702159 10.6154 0.210648L19.6154 7.21065C19.859 7.4001 20.0015 7.69141 20.0015 8V19C20.0015 19.7956 19.6854 20.5587 19.1228 21.1213C18.5602 21.6839 17.7971 22 17.0015 22H3.00146C2.20581 22 1.44275 21.6839 0.880144 21.1213C0.317535 20.5587 0.00146484 19.7956 0.00146484 19V8C0.00146484 7.69141 0.143938 7.4001 0.387524 7.21065L9.38752 0.210648ZM8.00146 20H12.0015V12H8.00146V20ZM14.0015 20V11C14.0015 10.4477 13.5538 10 13.0015 10H7.00146C6.44918 10 6.00146 10.4477 6.00146 11V20H3.00146C2.73625 20 2.48189 19.8946 2.29436 19.7071C2.10682 19.5196 2.00146 19.2652 2.00146 19V8.48908L10.0015 2.26686L18.0015 8.48908V19C18.0015 19.2652 17.8961 19.5196 17.7086 19.7071C17.521 19.8946 17.2667 20 17.0015 20H14.0015Z" fill="#F10088"/>
</svg>
