<svg width="20" height="20" viewBox="0 0 20 20" fill="none" xmlns="http://www.w3.org/2000/svg">
<path fill-rule="evenodd" clip-rule="evenodd" d="M12 0.999023C12 1.55131 12.4477 1.99902 13 1.99902H16.5858L7.29289 11.2919C6.90237 11.6824 6.90237 12.3156 7.29289 12.7061C7.68342 13.0967 8.31658 13.0967 8.70711 12.7061L18 3.41324V6.99902C18 7.55131 18.4477 7.99902 19 7.99902C19.5523 7.99902 20 7.55131 20 6.99902V0.999023C20 0.446739 19.5523 -0.000976562 19 -0.000976562H13C12.4477 -0.000976562 12 0.446739 12 0.999023ZM2.29289 5.29192C2.48043 5.10438 2.73478 4.99902 3 4.99902H9C9.55229 4.99902 10 4.55131 10 3.99902C10 3.44674 9.55229 2.99902 9 2.99902H3C2.20435 2.99902 1.44129 3.31509 0.87868 3.8777C0.31607 4.44031 0 5.20337 0 5.99902V16.999C0 17.7947 0.31607 18.5577 0.87868 19.1203C1.44129 19.683 2.20435 19.999 3 19.999H14C14.7957 19.999 15.5587 19.683 16.1213 19.1203C16.6839 18.5577 17 17.7947 17 16.999V10.999C17 10.4467 16.5523 9.99902 16 9.99902C15.4477 9.99902 15 10.4467 15 10.999V16.999C15 17.2642 14.8946 17.5186 14.7071 17.7061C14.5196 17.8937 14.2652 17.999 14 17.999H3C2.73478 17.999 2.48043 17.8937 2.29289 17.7061C2.10536 17.5186 2 17.2642 2 16.999V5.99902C2 5.73381 2.10536 5.47945 2.29289 5.29192Z" fill="#1CDCC7"/>
</svg>
