<svg width="22" height="21" viewBox="0 0 22 21" fill="none" xmlns="http://www.w3.org/2000/svg">
<path fill-rule="evenodd" clip-rule="evenodd" d="M6.14109 2.99636C7.66003 2.15882 9.41005 1.83765 11.1274 2.08125C12.8405 2.32423 14.4285 3.11603 15.6534 4.33771L18.6488 7.50002H14.4999C13.9476 7.50002 13.4999 7.94773 13.4999 8.50002C13.4999 9.0523 13.9476 9.50002 14.4999 9.50002H20.4999C21.0522 9.50002 21.4999 9.0523 21.4999 8.50002V2.50002C21.4999 1.94773 21.0522 1.50002 20.4999 1.50002C19.9476 1.50002 19.4999 1.94773 19.4999 2.50002V5.4902L17.0959 2.95232C17.0897 2.94584 17.0835 2.93944 17.0772 2.93313C15.5446 1.39951 13.555 0.405561 11.4083 0.101069C9.26158 -0.203423 7.07407 0.198037 5.17538 1.24495C3.2767 2.29187 1.76971 3.92752 0.881502 5.90543C-0.00670397 7.88334 -0.228004 10.0963 0.25095 12.211C0.729903 14.3256 1.88316 16.2273 3.53694 17.6294C5.19072 19.0316 7.25541 19.8583 9.4199 19.9849C11.5844 20.1115 13.7314 19.5312 15.5374 18.3315C17.3434 17.1317 18.7105 15.3775 19.4328 13.3331C19.6167 12.8124 19.3437 12.2411 18.823 12.0571C18.3023 11.8732 17.731 12.1462 17.547 12.6669C16.9692 14.3024 15.8755 15.7058 14.4307 16.6656C12.9859 17.6254 11.2683 18.0896 9.5367 17.9883C7.80511 17.887 6.15335 17.2257 4.83033 16.1039C3.50731 14.9822 2.58471 13.4609 2.20154 11.7692C1.81838 10.0775 1.99542 8.30707 2.70598 6.72474C3.41655 5.14241 4.62214 3.83389 6.14109 2.99636Z" fill="white"/>
</svg>
