<svg width="14" height="14" viewBox="0 0 14 14" fill="none" xmlns="http://www.w3.org/2000/svg">
<path fill-rule="evenodd" clip-rule="evenodd" d="M6.99992 0.332031C7.46016 0.332031 7.83325 0.705127 7.83325 1.16536V6.16537H12.8333C13.2935 6.16537 13.6666 6.53846 13.6666 6.9987C13.6666 7.45894 13.2935 7.83203 12.8333 7.83203H7.83325V12.832C7.83325 13.2923 7.46016 13.6654 6.99992 13.6654C6.53968 13.6654 6.16658 13.2923 6.16658 12.832V7.83203H1.16659C0.706348 7.83203 0.333252 7.45894 0.333252 6.9987C0.333252 6.53846 0.706348 6.16537 1.16659 6.16537H6.16658V1.16536C6.16658 0.705127 6.53968 0.332031 6.99992 0.332031Z" fill="#1CDCC7"/>
</svg>
