<svg width="24" height="24" viewBox="0 0 24 24" fill="none" xmlns="http://www.w3.org/2000/svg">
<path d="M12.2344 6.5C10.3594 6.5 9.14062 7.27344 8.17969 8.65625C8.01562 8.89062 8.0625 9.24219 8.32031 9.40625L9.32812 10.1797C9.5625 10.3672 9.91406 10.3203 10.1016 10.0859C10.6875 9.35938 11.1328 8.9375 12.0469 8.9375C12.7734 8.9375 13.6641 9.38281 13.6641 10.0859C13.6641 10.625 13.2188 10.8828 12.5156 11.2812C11.6719 11.75 10.5703 12.3359 10.5703 13.7891V14C10.5703 14.3281 10.8281 14.5625 11.1328 14.5625H12.8438C13.1484 14.5625 13.4062 14.3281 13.4062 14V13.8828C13.4062 12.875 16.3359 12.8281 16.3359 10.1094C16.3359 8.07031 14.2031 6.5 12.2344 6.5ZM12 15.2656C11.0859 15.2656 10.3594 15.9922 10.3594 16.8828C10.3594 17.7734 11.0859 18.5 12 18.5C12.8906 18.5 13.6172 17.7734 13.6172 16.8828C13.6172 15.9922 12.8906 15.2656 12 15.2656Z" fill="#B8C5EC" fill-opacity="0.35"/>
<path d="M12 23C5.92487 23 1 18.0751 1 12H-1C-1 19.1797 4.8203 25 12 25V23ZM23 12C23 18.0751 18.0751 23 12 23V25C19.1797 25 25 19.1797 25 12H23ZM12 1C18.0751 1 23 5.92487 23 12H25C25 4.8203 19.1797 -1 12 -1V1ZM12 -1C4.8203 -1 -1 4.8203 -1 12H1C1 5.92487 5.92487 1 12 1V-1Z" fill="#B8C5EC" fill-opacity="0.35"/>
</svg>
