<svg width="24" height="24" viewBox="0 0 24 24" fill="none" xmlns="http://www.w3.org/2000/svg">
<path fill-rule="evenodd" clip-rule="evenodd" d="M12.0015 2.5C11.7685 2.5 11.5269 2.59799 11.3586 2.76627C11.1882 2.93675 11.0924 3.16799 11.0924 3.40909V3.57535C11.0904 4.07753 10.9416 4.56817 10.6643 4.98687C10.387 5.40556 9.99334 5.73404 9.53176 5.93187C9.44867 5.96748 9.36132 5.99158 9.27215 6.00367C8.85398 6.14925 8.40411 6.18492 7.96613 6.10551C7.45988 6.01371 6.99273 5.77237 6.62493 5.41259L6.61704 5.40488L6.55981 5.34756C6.47538 5.26304 6.37473 5.19559 6.26437 5.14984C6.154 5.10409 6.03571 5.08054 5.91624 5.08054C5.79677 5.08054 5.67847 5.10409 5.56811 5.14984C5.45775 5.19559 5.35749 5.26264 5.27306 5.34717L5.27227 5.34795C5.18775 5.43238 5.12069 5.53265 5.07494 5.64301C5.02919 5.75337 5.00564 5.87167 5.00564 5.99114C5.00564 6.1106 5.02919 6.2289 5.07494 6.33926C5.12069 6.44963 5.18775 6.54989 5.27227 6.63432L5.33773 6.69978C5.69751 7.06759 5.93881 7.53478 6.03061 8.04103C6.12052 8.53691 6.06291 9.04804 5.86527 9.51114C5.68491 9.98357 5.36932 10.3927 4.95763 10.6871C4.53737 10.9877 4.0364 11.1549 3.51985 11.167L3.49646 11.1673H3.41056C3.16945 11.1673 2.93822 11.2631 2.76773 11.4335C2.59724 11.604 2.50146 11.8353 2.50146 12.0764C2.50146 12.3175 2.59724 12.5487 2.76773 12.7192C2.93822 12.8897 3.16945 12.9855 3.41056 12.9855H3.57682C4.079 12.9875 4.56964 13.1363 4.98833 13.4135C5.40554 13.6898 5.73318 14.0817 5.93123 14.5412C6.13723 15.0106 6.19844 15.5309 6.10697 16.0353C6.01518 16.5416 5.77383 17.0087 5.41405 17.3765L5.40633 17.3844L5.34901 17.4417C5.26449 17.5261 5.19706 17.6267 5.15131 17.7371C5.10556 17.8475 5.08201 17.9658 5.08201 18.0852C5.08201 18.2047 5.10556 18.323 5.15131 18.4334C5.19706 18.5437 5.26411 18.644 5.34863 18.7284L5.34942 18.7292C5.43385 18.8137 5.53411 18.8808 5.64447 18.9265C5.75484 18.9723 5.87313 18.9958 5.9926 18.9958C6.11207 18.9958 6.23037 18.9723 6.34073 18.9265C6.45109 18.8808 6.55135 18.8137 6.63578 18.7292L6.70125 18.6637C7.06905 18.3039 7.53625 18.0627 8.04249 17.9709C8.53837 17.8809 9.04949 17.9386 9.51259 18.1362C9.98503 18.3165 10.3941 18.6321 10.6886 19.0438C10.9892 19.4641 11.1564 19.9651 11.1685 20.4816L11.1687 20.505V20.5909C11.1687 20.832 11.2645 21.0632 11.435 21.2337C11.6055 21.4042 11.8367 21.5 12.0778 21.5C12.3189 21.5 12.5502 21.4042 12.7207 21.2337C12.8911 21.0632 12.9869 20.832 12.9869 20.5909V20.4286L12.9869 20.4246C12.9889 19.9225 13.1377 19.4318 13.415 19.0131C13.6913 18.596 14.0831 18.2683 14.5425 18.0703C15.012 17.8642 15.5323 17.803 16.0368 17.8945C16.543 17.9863 17.0102 18.2276 17.378 18.5874L17.3859 18.5951L17.4431 18.6525C17.5276 18.737 17.6282 18.8044 17.7386 18.8502C17.8489 18.8959 17.9672 18.9195 18.0867 18.9195C18.2062 18.9195 18.3245 18.8959 18.4348 18.8502C18.5071 18.8202 18.6096 18.7526 18.7505 18.6316C18.8257 18.5516 18.8859 18.4586 18.928 18.357C18.9737 18.2466 18.9973 18.1283 18.9973 18.0089C18.9973 17.8894 18.9737 17.7711 18.928 17.6607C18.8822 17.5504 18.8152 17.4501 18.7307 17.3657L18.6652 17.3002C18.3054 16.9324 18.0641 16.4652 17.9723 15.959C17.8809 15.4545 17.9421 14.9343 18.148 14.4649C18.3461 14.0054 18.6737 13.6135 19.091 13.3372C19.5097 13.0599 20.0003 12.9111 20.5025 12.9091L20.5065 12.9091L20.5924 12.9091C20.8335 12.9091 21.0647 12.8133 21.2352 12.6428C21.4057 12.4723 21.5015 12.2411 21.5015 12C21.5015 11.7589 21.4057 11.5277 21.2352 11.3572C21.0647 11.1867 20.8335 11.0909 20.5924 11.0909H20.4301L20.4261 11.0909C19.9239 11.0889 19.4333 10.9401 19.0146 10.6628C18.5959 10.3855 18.2674 9.99188 18.0696 9.5303C18.034 9.4472 18.0099 9.35986 17.9978 9.27069C17.8522 8.85252 17.8165 8.40264 17.896 7.96466C17.996 7.41297 18.3226 6.89696 18.6461 6.56619L18.6542 6.55791C18.7388 6.47348 18.8059 6.37326 18.8516 6.2629C18.8974 6.15254 18.9209 6.03424 18.9209 5.91477C18.9209 5.79531 18.8974 5.67701 18.8516 5.56665C18.8217 5.49435 18.754 5.39188 18.633 5.25095C18.5531 5.17574 18.46 5.11558 18.3585 5.07348C18.2481 5.02773 18.1298 5.00418 18.0103 5.00418C17.8909 5.00418 17.7726 5.02773 17.6622 5.07348C17.5518 5.11923 17.4516 5.18628 17.3671 5.2708L17.3017 5.33627C16.9339 5.69605 16.4667 5.93735 15.9604 6.02914C15.456 6.12061 14.9357 6.0594 14.4663 5.8534C14.0068 5.65535 13.615 5.32772 13.3386 4.9105C13.0614 4.49181 12.9126 4.00117 12.9106 3.49899L12.9106 3.495V3.40909C12.9106 3.16798 12.8148 2.93675 12.6443 2.76627C12.476 2.59799 12.2344 2.5 12.0015 2.5ZM9.94443 1.35205C10.4922 0.804285 11.2444 0.5 12.0015 0.5C12.7585 0.5 13.5107 0.804285 14.0585 1.35205C14.6041 1.89761 14.9106 2.63755 14.9106 3.40909V3.49246C14.9113 3.60409 14.9445 3.71311 15.0061 3.8062C15.0681 3.8997 15.156 3.97305 15.259 4.01722L15.2689 4.02145C15.374 4.06784 15.4906 4.08173 15.6036 4.06123C15.7153 4.04098 15.8184 3.98814 15.9001 3.90941L15.9521 3.85738C16.2223 3.5869 16.5432 3.37233 16.8963 3.22593C17.2495 3.07953 17.628 3.00418 18.0103 3.00418C18.3926 3.00418 18.7712 3.07953 19.1243 3.22593C19.4775 3.37233 19.7983 3.5869 20.0685 3.85738C20.0838 3.87271 20.0986 3.88854 20.1129 3.90483C20.2877 4.10418 20.5389 4.41418 20.6992 4.80076C20.8456 5.15392 20.9209 5.53247 20.9209 5.91477C20.9209 6.29707 20.8456 6.67562 20.6992 7.02878C20.5537 7.37961 20.341 7.69854 20.0731 7.9676C19.958 8.0866 19.876 8.25442 19.8639 8.32148C19.8434 8.43454 19.8572 8.55113 19.9036 8.65623C19.9306 8.71743 19.9513 8.78102 19.9656 8.84601C20.0067 8.90465 20.0586 8.95539 20.1189 8.99533C20.212 9.05697 20.321 9.09018 20.4326 9.09091H20.5924C21.3639 9.09091 22.1039 9.3974 22.6494 9.94296C23.195 10.4885 23.5015 11.2285 23.5015 12C23.5015 12.7715 23.195 13.5115 22.6494 14.057C22.1039 14.6026 21.3639 14.9091 20.5924 14.9091H20.509C20.3974 14.9098 20.2884 14.943 20.1953 15.0047C20.1018 15.0666 20.0284 15.1545 19.9842 15.2576L19.98 15.2674C19.9336 15.3725 19.9197 15.4891 19.9402 15.6022C19.9605 15.7138 20.0133 15.817 20.0921 15.8987L20.1441 15.9507C20.4146 16.2209 20.6291 16.5417 20.7755 16.8949C20.9219 17.248 20.9973 17.6266 20.9973 18.0089C20.9973 18.3912 20.9219 18.7697 20.7755 19.1229C20.6291 19.476 20.4146 19.7969 20.1441 20.067C20.1288 20.0824 20.1129 20.0972 20.0966 20.1115C19.8973 20.2862 19.5873 20.5375 19.2007 20.6977C18.8475 20.8441 18.469 20.9195 18.0867 20.9195C17.7044 20.9195 17.3258 20.8441 16.9727 20.6977C16.6195 20.5513 16.2987 20.3367 16.0285 20.0663L15.9765 20.0142C15.8948 19.9355 15.7917 19.8827 15.68 19.8624C15.5669 19.8419 15.4503 19.8557 15.3452 19.9021L15.3354 19.9065C15.2323 19.9506 15.1444 20.0239 15.0825 20.1174C15.0209 20.2105 14.9877 20.3194 14.9869 20.431V20.5909C14.9869 21.3624 14.6804 22.1024 14.1349 22.6479C13.5893 23.1935 12.8494 23.5 12.0778 23.5C11.3063 23.5 10.5663 23.1935 10.0208 22.6479C9.47523 22.1024 9.16874 21.3624 9.16874 20.5909V20.5196C9.16439 20.4074 9.12727 20.2988 9.06186 20.2073C8.99473 20.1135 8.90093 20.042 8.79265 20.0022C8.77287 19.9949 8.75334 19.987 8.73406 19.9785C8.62896 19.9321 8.51236 19.9183 8.39931 19.9388C8.28763 19.959 8.18447 20.0119 8.10281 20.0906L8.05078 20.1426C7.78061 20.4131 7.45977 20.6277 7.10661 20.7741C6.75345 20.9205 6.3749 20.9958 5.9926 20.9958C5.6103 20.9958 5.23175 20.9205 4.87859 20.7741C4.52544 20.6277 4.2046 20.4131 3.93442 20.1426C3.66431 19.8726 3.45002 19.552 3.30376 19.1992C3.15736 18.8461 3.08201 18.4675 3.08201 18.0852C3.08201 17.7029 3.15736 17.3244 3.30376 16.9712C3.45016 16.6181 3.66473 16.2972 3.93521 16.027L3.98724 15.975C4.06597 15.8933 4.11881 15.7902 4.13906 15.6785C4.15956 15.5655 4.14572 15.4489 4.09933 15.3438L4.095 15.334C4.05082 15.2309 3.97753 15.143 3.88403 15.081C3.79098 15.0194 3.68202 14.9862 3.57044 14.9855H3.41056C2.63902 14.9855 1.89908 14.679 1.35352 14.1334C0.807958 13.5878 0.501465 12.8479 0.501465 12.0764C0.501465 11.3048 0.807958 10.5649 1.35352 10.0193C1.89908 9.47377 2.63902 9.16727 3.41056 9.16727H3.48188C3.59411 9.16293 3.70268 9.1258 3.79414 9.06039C3.88798 8.99327 3.95947 8.89947 3.99929 8.79118C4.00656 8.77141 4.01446 8.75187 4.02297 8.7326C4.06935 8.62749 4.08319 8.51089 4.06269 8.39785C4.04244 8.28616 3.9896 8.183 3.91086 8.10133L3.85884 8.04932C3.85871 8.04919 3.85897 8.04945 3.85884 8.04932C3.58855 7.77922 3.37372 7.45813 3.2274 7.10514C3.081 6.75199 3.00564 6.37344 3.00564 5.99114C3.00564 5.60884 3.081 5.23029 3.2274 4.87713C3.37372 4.52414 3.58816 4.20344 3.85845 3.93335C4.12854 3.66306 4.44924 3.44862 4.80223 3.30229C5.15539 3.1559 5.53394 3.08054 5.91624 3.08054C6.29854 3.08054 6.67709 3.1559 7.03025 3.30229C7.38323 3.44862 7.70393 3.66306 7.97403 3.93335C7.97416 3.93348 7.9739 3.93322 7.97403 3.93335L8.02643 3.98575C8.1081 4.0645 8.21126 4.11734 8.32295 4.13759C8.436 4.15809 8.55259 4.14425 8.6577 4.09786C8.7189 4.07085 8.78249 4.05013 8.84749 4.03589C8.90613 3.99477 8.95686 3.94286 8.99679 3.88257C9.05844 3.78948 9.09165 3.68046 9.09237 3.56883V3.40909C9.09237 2.63755 9.39887 1.89761 9.94443 1.35205ZM12.0015 10C10.8969 10 10.0015 10.8954 10.0015 12C10.0015 13.1046 10.8969 14 12.0015 14C13.106 14 14.0015 13.1046 14.0015 12C14.0015 10.8954 13.106 10 12.0015 10ZM8.00146 12C8.00146 9.79086 9.79233 8 12.0015 8C14.2106 8 16.0015 9.79086 16.0015 12C16.0015 14.2091 14.2106 16 12.0015 16C9.79233 16 8.00146 14.2091 8.00146 12Z" fill="#F10088"/>
</svg>
