<svg width="24" height="24" viewBox="0 0 24 24" fill="none" xmlns="http://www.w3.org/2000/svg">
<path d="M12 0C18.6276 0 24 5.3724 24 12C24 18.6276 18.6276 24 12 24C5.3724 24 0 18.6276 0 12C0 5.3724 5.3724 0 12 0ZM17.3304 7.2C16.8732 7.2084 16.1712 7.4484 12.7956 8.8344C10.4262 9.82357 8.06333 10.8284 5.7072 11.8488C5.1312 12.0756 4.8312 12.2964 4.8036 12.5124C4.7508 12.9276 5.3556 13.056 6.1164 13.3008C6.7368 13.5 7.572 13.7328 8.0064 13.7424C8.4 13.7508 8.8392 13.59 9.324 13.2624C12.636 11.0544 14.3436 9.9396 14.4516 9.9156C14.5272 9.8988 14.6316 9.8772 14.7036 9.9396C14.7744 10.002 14.7672 10.1196 14.7588 10.152C14.6988 10.4052 11.5896 13.1976 11.4108 13.3812L11.3244 13.4676C10.6644 14.1192 9.9984 14.5452 11.148 15.2928C12.1872 15.9684 12.792 16.3992 13.86 17.0928C14.544 17.5344 15.0804 18.0588 15.786 17.9952C16.1112 17.9652 16.446 17.664 16.6176 16.764C17.0196 14.64 17.8116 10.0344 17.994 8.136C18.005 7.97853 17.9982 7.82033 17.9736 7.6644C17.9588 7.53851 17.8971 7.42283 17.8008 7.3404C17.6556 7.2228 17.43 7.1988 17.3304 7.2Z" fill="#B8C5EC"/>
</svg>
