<svg width="20" height="16" viewBox="0 0 20 16" fill="none" xmlns="http://www.w3.org/2000/svg">
<path d="M17.633 3.99655C17.646 4.17156 17.646 4.34556 17.646 4.51956C17.646 9.84455 13.593 15.9806 6.186 15.9806C3.904 15.9806 1.784 15.3196 0 14.1716C0.324 14.2086 0.636 14.2216 0.973 14.2216C2.856 14.2216 4.589 13.5856 5.974 12.5006C4.203 12.4636 2.719 11.3036 2.207 9.70755C2.456 9.74455 2.706 9.76956 2.968 9.76956C3.329 9.76956 3.692 9.71955 4.029 9.63256C2.182 9.25856 0.799 7.63756 0.799 5.67955V5.62955C1.336 5.92855 1.959 6.11555 2.619 6.14055C1.534 5.41855 0.823 4.18355 0.823 2.78655C0.823 2.03855 1.022 1.35255 1.371 0.754555C3.354 3.19755 6.335 4.79455 9.677 4.96955C9.615 4.66955 9.577 4.35855 9.577 4.04655C9.577 1.82655 11.373 0.0185547 13.605 0.0185547C14.765 0.0185547 15.812 0.504555 16.548 1.29055C17.458 1.11555 18.33 0.778554 19.104 0.317554C18.805 1.25255 18.168 2.03855 17.333 2.53755C18.144 2.44955 18.93 2.22555 19.652 1.91355C19.104 2.71155 18.419 3.42255 17.633 3.99655Z" fill="#B8C5EC"/>
</svg>
