<svg width="20" height="16" viewBox="0 0 20 16" fill="none" xmlns="http://www.w3.org/2000/svg">
<path d="M17.6345 3.99655C17.6475 4.17156 17.6475 4.34556 17.6475 4.51956C17.6475 9.84455 13.5945 15.9806 6.18746 15.9806C3.90546 15.9806 1.78546 15.3196 0.00146484 14.1716C0.325465 14.2086 0.637465 14.2216 0.974465 14.2216C2.85746 14.2216 4.59046 13.5856 5.97546 12.5006C4.20446 12.4636 2.72046 11.3036 2.20846 9.70755C2.45746 9.74455 2.70746 9.76956 2.96946 9.76956C3.33046 9.76956 3.69346 9.71955 4.03046 9.63256C2.18346 9.25856 0.800465 7.63756 0.800465 5.67955V5.62955C1.33746 5.92855 1.96046 6.11555 2.62046 6.14055C1.53546 5.41855 0.824465 4.18355 0.824465 2.78655C0.824465 2.03855 1.02346 1.35255 1.37246 0.754555C3.35546 3.19755 6.33646 4.79455 9.67846 4.96955C9.61646 4.66955 9.57846 4.35855 9.57846 4.04655C9.57846 1.82655 11.3745 0.0185547 13.6065 0.0185547C14.7665 0.0185547 15.8135 0.504555 16.5495 1.29055C17.4595 1.11555 18.3315 0.778554 19.1055 0.317554C18.8065 1.25255 18.1695 2.03855 17.3345 2.53755C18.1455 2.44955 18.9315 2.22555 19.6535 1.91355C19.1055 2.71155 18.4205 3.42255 17.6345 3.99655Z" fill="#3385FF"/>
</svg>
